<svg width="182" height="47" viewBox="0 0 182 47" fill="none" xmlns="http://www.w3.org/2000/svg">
<path d="M50.1465 27.2363V0.762695H55.6947V10.8563H66.0776V0.762695H71.6223V27.2363H66.0741V15.4194H55.6947V27.2363H50.1465Z" fill="#959595"/>
<mask id="mask0_809_154" style="mask-type:luminance" maskUnits="userSpaceOnUse" x="0" y="0" width="44" height="47">
<path d="M43.3899 0H0V46.0789H43.3899V0Z" fill="white"/>
</mask>
<g mask="url(#mask0_809_154)">
<path d="M17.2785 10.6916C23.431 5.74131 31.072 3.04115 38.9493 3.03368C39.373 3.03368 39.7847 3.04586 40.1866 3.06048C40.4336 2.30029 40.6548 1.53361 40.85 0.76043C38.508 0.254674 36.1194 -0.000141321 33.7241 0.000245337C26.0524 -0.0292577 18.6052 2.60298 12.6369 7.45348C7.56758 11.5471 3.77962 17.0256 1.72753 23.2316C-0.324532 29.4376 -0.553563 36.1077 1.06793 42.4415C1.62569 39.4604 2.79326 36.6286 4.4965 34.1258C4.65045 32.7027 4.89306 31.2908 5.2229 29.8985C7.01005 22.3265 11.2517 15.5688 17.2785 10.6916Z" fill="#959595"/>
<path d="M38.4257 7.47911C38.5588 7.20623 38.6896 6.93333 38.8155 6.65557L38.83 6.62634C38.9754 6.30147 39.1158 5.97661 39.2514 5.65174L39.3288 5.46169C39.4427 5.18393 39.5516 4.90617 39.6582 4.62598L39.7526 4.38232C39.7986 4.26293 39.8398 4.13868 39.8809 4.01929C39.5807 4.01929 39.2731 4.01929 38.9632 4.01929C31.292 3.9895 23.8448 6.62082 17.876 11.4701C12.0061 16.2127 7.87401 22.7883 6.1327 30.158C5.94142 30.9766 5.78161 31.805 5.64844 32.6359L5.7356 32.5335C5.83972 32.4069 5.94626 32.2898 6.0528 32.1583C6.11817 32.0829 6.18113 32.0073 6.24892 31.9318C6.41115 31.749 6.57338 31.5712 6.73318 31.3957C6.81309 31.3104 6.89541 31.2301 6.97531 31.1521C7.05523 31.074 7.17144 30.9522 7.27072 30.8547L7.55643 30.5795C7.64602 30.4942 7.7356 30.4089 7.82761 30.3358C7.91962 30.2627 8.02858 30.1531 8.13028 30.063L8.40631 29.8194C8.508 29.7316 8.6097 29.6439 8.71382 29.5586C8.81794 29.4733 8.95595 29.3686 9.06975 29.2759C9.18355 29.1834 9.37968 29.0323 9.53949 28.9154C9.65328 28.8301 9.76708 28.7448 9.88331 28.6717L10.1811 28.4646C10.2949 28.3843 10.4233 28.3038 10.5298 28.2209L10.8228 27.987C10.9511 27.9042 11.0819 27.8238 11.2126 27.7434C11.2998 27.6898 11.3869 27.6337 11.4765 27.5827C11.663 27.473 11.8494 27.3657 12.0407 27.261L12.2029 27.1709C12.3361 27.0978 12.4717 27.0295 12.6049 26.9589C15.0094 21.8433 18.618 17.3953 23.1175 14.0007C27.6171 10.6061 32.8718 8.36753 38.4257 7.47911Z" fill="#959595"/>
<path d="M18.2936 24.8889L18.376 24.8621C18.5334 24.8133 18.6907 24.7622 18.8458 24.7086L19.1823 24.5941L19.3881 24.521L19.6787 24.4162L20.0274 24.2846L20.3421 24.1652L20.434 24.1286L20.8481 23.9606L21.1895 23.8216L21.6545 23.6194L21.9862 23.4708C22.1411 23.4026 22.2936 23.3295 22.4462 23.2564L22.7707 23.103L23.2282 22.8763L23.5479 22.7131L23.9982 22.4695L24.3131 22.2989C24.4607 22.2184 24.6085 22.1331 24.7537 22.0553L25.0661 21.875C25.2114 21.7897 25.3566 21.7044 25.4995 21.6167L25.8094 21.429L26.2332 21.1585L26.5382 20.9613C26.6787 20.8711 26.8166 20.7785 26.9547 20.6835C27.0928 20.5884 27.158 20.5471 27.2574 20.4764C27.393 20.3838 27.5286 20.2863 27.6617 20.1913L27.9644 19.9745L28.3591 19.6796L28.6568 19.4531C28.7852 19.3532 28.9135 19.2532 29.0394 19.151L29.3373 18.9073L29.7077 18.6003C29.8071 18.5175 29.9063 18.4347 30.0032 18.3566L30.3638 18.0448L30.6568 17.7816C30.7731 17.6769 30.899 17.572 31.0032 17.4648L31.2961 17.1896L31.6303 16.8679L31.9208 16.5804L32.2404 16.2564L32.5309 15.9518L32.8361 15.6277C32.9353 15.5205 33.0297 15.4133 33.1266 15.3062C33.2235 15.199 33.3227 15.0917 33.4172 14.982C33.5116 14.8724 33.6108 14.7579 33.7077 14.6434C33.8046 14.5289 33.8918 14.4314 33.9814 14.3218L34.2744 13.9636C34.3615 13.8564 34.4462 13.7541 34.5309 13.6469L34.8288 13.2619C34.9063 13.1596 34.9862 13.0597 35.0709 12.9574C35.1743 12.8177 35.276 12.6788 35.376 12.5407C35.4462 12.4433 35.5189 12.3482 35.5866 12.2508C35.6957 12.0997 35.7997 11.9462 35.9063 11.7927C35.9644 11.705 36.0249 11.6197 36.0854 11.532L36.434 11.0008L36.5649 10.7986C36.7102 10.5696 36.853 10.3381 36.991 10.1067L37.0274 10.0506C37.3276 9.54627 37.6181 9.0346 37.8942 8.51562C32.8155 9.43725 28.0159 11.5226 23.8667 14.6103C19.7174 17.698 16.33 21.7052 13.9668 26.3215L14.1314 26.2532L14.3736 26.1582L14.5406 26.0901L14.7586 26.0048L15.1387 25.8635L15.2839 25.8099L15.3324 25.7928L15.5866 25.7075L15.9572 25.5856L16.0467 25.554L16.3953 25.4493C16.4583 25.4322 16.5212 25.4176 16.5818 25.3981L16.8773 25.3153L17.0878 25.2592C17.3905 25.1739 17.6932 25.0862 17.991 24.9936C18.0831 24.9595 18.1847 24.923 18.2936 24.8889Z" fill="#959595"/>
<path d="M17.216 28.3669C17.734 28.328 18.2644 28.3085 18.7922 28.3085C23.8389 28.3003 28.7319 30.0551 32.636 33.2732C36.5401 36.4912 39.2132 40.973 40.199 45.9536C41.2768 45.8339 42.3438 45.6303 43.3903 45.3444C43.2143 42.2154 42.346 39.1655 40.8486 36.4172C39.3512 33.6692 37.2627 31.2924 34.7356 29.4604C32.2086 27.6285 29.3066 26.3878 26.2421 25.829C23.1774 25.27 20.0274 25.4072 17.0222 26.2301H16.9883C17.0276 26.9459 17.1034 27.6591 17.216 28.3669Z" fill="#959595"/>
<path d="M18.7907 29.2334C18.3184 29.2334 17.8463 29.2505 17.3789 29.2797C17.3789 29.2943 17.3789 29.3065 17.3789 29.3212C17.4298 29.5648 17.4855 29.8085 17.5437 30.0521L17.6162 30.3346C17.6574 30.5052 17.7035 30.671 17.7518 30.8366C17.8124 31.0534 17.8778 31.2704 17.948 31.4848L17.9988 31.6479C18.069 31.86 18.1441 32.072 18.2192 32.2814C22.0146 32.8381 25.5968 34.3927 28.6037 36.7885C31.6108 39.1843 33.9363 42.3361 35.3451 45.9258C35.5145 45.9454 35.6865 45.9673 35.8584 45.9819L36.1005 46.0038C36.3427 46.0257 36.6089 46.0429 36.8657 46.055H37.0352C37.2628 46.055 37.4903 46.0695 37.718 46.072H37.9358C38.086 46.072 38.2361 46.072 38.3862 46.072H38.5897C38.8052 46.072 39.0182 46.055 39.2313 46.0404H39.258C38.2983 41.2923 35.7357 37.0244 32.0052 33.961C28.2746 30.8977 23.6057 29.2273 18.7907 29.2334Z" fill="#959595"/>
<path d="M18.8898 33.8856C18.9867 34.0974 19.0884 34.307 19.1901 34.5117L19.2433 34.6141C19.3281 34.7821 19.4153 34.9527 19.5072 35.1208C19.5509 35.2036 19.5992 35.2841 19.6453 35.3645C19.6913 35.4449 19.7735 35.6081 19.8414 35.7128L20.0085 35.9907C20.069 36.0905 20.1296 36.1929 20.1925 36.2928C20.2555 36.3927 20.3184 36.4853 20.3789 36.5827L20.5629 36.8605L20.764 37.1529L20.948 37.4136L21.1634 37.706C21.2263 37.7888 21.2869 37.8716 21.3499 37.9497L21.5799 38.2419C21.6428 38.3199 21.7058 38.3955 21.7663 38.4734C21.8269 38.5514 21.9286 38.6683 22.0085 38.7634L22.1973 38.9803C22.282 39.0777 22.3692 39.1752 22.4563 39.2702C22.5435 39.3652 22.5799 39.4042 22.6429 39.4699C22.7058 39.5357 22.822 39.6625 22.9141 39.7575L22.9261 39.7697L23.0981 39.9427L23.3934 40.2351C23.4468 40.2886 23.5048 40.3398 23.5605 40.391L23.8971 40.6979L24.023 40.81L24.1973 40.9611L24.4975 41.2194L24.7785 41.4484C24.9068 41.5531 25.0352 41.6531 25.1658 41.753C25.236 41.809 25.3062 41.865 25.3789 41.9186C25.5799 42.0698 25.7832 42.2159 25.989 42.3597L26.1731 42.484C26.3377 42.5936 26.5025 42.7033 26.6574 42.8104L26.8511 42.9323C27.0447 43.0516 27.241 43.1759 27.4418 43.2856L27.5799 43.3659C27.7977 43.4877 28.0157 43.6096 28.2385 43.7241L28.4006 43.807C28.5919 43.9044 28.7882 43.9994 28.9843 44.0919L29.1561 44.1724C29.3789 44.2747 29.6041 44.3746 29.8317 44.4696L30.0012 44.5379C30.2046 44.6207 30.4104 44.7011 30.6162 44.7816L30.6888 44.8083L30.8559 44.8692C31.0472 44.9375 31.2385 45.0009 31.4321 45.0641L31.6404 45.1324C31.8826 45.208 32.1247 45.2786 32.3669 45.3468L32.6089 45.4077C32.7905 45.4539 32.9721 45.5002 33.1561 45.5417L33.4733 45.6123L33.9576 45.7098L34.2772 45.7682C32.9117 42.5386 30.7631 39.705 28.0279 37.527C25.2929 35.3489 22.0585 33.8959 18.6211 33.3008C18.6816 33.447 18.747 33.5932 18.8124 33.7394L18.8898 33.8856Z" fill="#959595"/>
</g>
<path d="M85.865 0.762695H92.1619L101.607 27.2363H95.5833L93.8342 21.796H83.9795L82.1674 27.2363H76.3428L85.865 0.762695ZM85.4978 17.2328H92.3368L88.9645 6.83066L85.4978 17.2328Z" fill="#959595"/>
<path d="M123.322 1.44577C124.293 1.8557 125.15 2.48931 125.824 3.29391C126.388 3.96181 126.841 4.71438 127.167 5.52344C127.508 6.40853 127.676 7.35004 127.66 8.29736C127.658 9.59404 127.335 10.8704 126.719 12.0144C126.387 12.63 125.936 13.1746 125.392 13.6172C124.847 14.0599 124.22 14.3919 123.546 14.5941C124.637 14.9653 125.563 15.7007 126.167 16.6746C126.68 17.5785 126.936 18.9584 126.936 20.8147V22.5935C126.909 23.4157 126.958 24.2386 127.083 25.0518C127.137 25.3621 127.257 25.6575 127.434 25.9181C127.612 26.1789 127.844 26.3989 128.115 26.5637V27.2259H121.937C121.766 26.64 121.647 26.1683 121.587 25.8078C121.442 25.0556 121.363 24.292 121.353 23.5262L121.315 21.0678C121.293 19.3792 120.996 18.2523 120.433 17.6906C119.87 17.1289 118.806 16.8446 117.253 16.8446H111.789V27.2259H106.335V0.762695H119.111C120.937 0.79737 122.341 1.02506 123.322 1.44577ZM111.778 5.36048V12.4721H117.785C118.976 12.4721 119.871 12.3288 120.468 12.0422C121.524 11.5406 122.053 10.5466 122.053 9.0602C122.053 7.45595 121.542 6.37874 120.52 5.82857C119.947 5.5165 119.086 5.36048 117.939 5.36048H111.778Z" fill="#959595"/>
<path d="M132.788 0.762695H138.641L149.241 19.2231V0.762695H154.443V27.2363H148.862L137.99 8.4534V27.2363H132.788V0.762695Z" fill="#959595"/>
<path d="M164.5 19.0745C164.674 20.2859 165.014 21.1897 165.518 21.7861C166.451 22.8772 168.036 23.4228 170.275 23.4228C171.383 23.4544 172.489 23.3092 173.55 22.9928C175.138 22.4426 175.933 21.4186 175.936 19.9207C175.945 19.5088 175.842 19.1022 175.636 18.7444C175.43 18.3865 175.13 18.0908 174.767 17.8888C173.988 17.4264 172.753 17.0138 171.059 16.6509L168.167 16.0232C165.325 15.3991 163.373 14.723 162.31 13.9948C160.505 12.772 159.602 10.8592 159.602 8.25628C159.579 7.14186 159.804 6.03609 160.261 5.01738C160.718 3.99868 161.394 3.09201 162.244 2.36168C164.003 0.794423 166.589 0.00963582 170.003 0.00732422C172.85 0.00732422 175.28 0.747035 177.294 2.22645C179.307 3.70589 180.361 5.85222 180.46 8.66543H175.086C174.986 7.07274 174.267 5.94121 172.931 5.27084C171.89 4.79556 170.75 4.56762 169.604 4.60511C168.13 4.60511 166.954 4.8929 166.074 5.46849C165.66 5.7191 165.32 6.07356 165.089 6.49609C164.857 6.9186 164.742 7.3942 164.755 7.87486C164.741 8.31512 164.857 8.74991 165.088 9.12614C165.32 9.50237 165.656 9.80375 166.056 9.99345C166.612 10.3055 167.794 10.6708 169.604 11.0891L174.291 12.1849C176.346 12.6634 177.887 13.3048 178.914 14.1093C180.503 15.3529 181.299 17.1547 181.299 19.515C181.318 20.6663 181.073 21.8068 180.583 22.8508C180.093 23.8946 179.37 24.8146 178.468 25.5413C176.584 27.1363 173.92 27.935 170.476 27.9372C166.959 27.9372 164.193 27.1501 162.177 25.5759C160.162 24.0017 159.154 21.837 159.154 19.0815L164.5 19.0745Z" fill="#959595"/>
<path d="M58.5521 32.2534V33.4773H55.0538V42.5168H53.63V33.4773H50.1318V32.2534H58.5521Z" fill="#959595"/>
<path d="M67.0996 35.2092C67.5623 35.4244 67.9585 35.7585 68.247 36.1767C68.5108 36.5756 68.685 37.0261 68.7578 37.4976C68.8473 38.0419 68.8848 38.5935 68.8697 39.1448H63.3354C63.3247 39.7942 63.5138 40.4316 63.8777 40.972C64.0621 41.2073 64.3022 41.3938 64.5769 41.5147C64.8516 41.6357 65.1521 41.6876 65.4519 41.6656C65.7478 41.6786 66.0431 41.6274 66.3167 41.5153C66.5906 41.4034 66.8362 41.2332 67.0367 41.0171C67.2605 40.7651 67.4242 40.4664 67.5159 40.1433H68.7647C68.7134 40.4672 68.6019 40.7787 68.436 41.0622C68.2735 41.37 68.0621 41.6498 67.8097 41.891C67.4142 42.2689 66.9198 42.5295 66.3824 42.6434C66.0387 42.7242 65.6863 42.7626 65.333 42.7578C64.8851 42.7642 64.4409 42.677 64.0291 42.502C63.6175 42.3269 63.2477 42.0679 62.9437 41.7419C62.2929 41.0483 61.9642 40.1121 61.9642 38.8915C61.917 37.8289 62.2684 36.7864 62.9507 35.9651C63.2687 35.5983 63.6658 35.3069 64.1127 35.1124C64.5595 34.9181 65.0447 34.8255 65.5324 34.8416C66.0768 34.8395 66.6139 34.9655 67.0996 35.2092ZM67.5649 38.1461C67.5418 37.691 67.4226 37.2456 67.2151 36.8389C67.041 36.5381 66.784 36.2927 66.4741 36.1318C66.1643 35.9709 65.8145 35.901 65.466 35.9304C65.1908 35.9245 64.9176 35.9771 64.6647 36.0849C64.4119 36.1925 64.1852 36.3527 64.0001 36.5546C63.5985 36.9894 63.3742 37.5565 63.3704 38.1461H67.5649Z" fill="#959595"/>
<path d="M79.7387 35.4543C80.2728 35.8635 80.5935 36.5696 80.7008 37.573H79.4869C79.427 37.1492 79.2489 36.7505 78.9726 36.4217C78.804 36.2571 78.601 36.1309 78.3781 36.0519C78.1552 35.9728 77.9175 35.9428 77.6818 35.964C77.3018 35.9498 76.9274 36.0561 76.6128 36.2675C76.2981 36.4789 76.0598 36.7844 75.9326 37.1395C75.6871 37.7356 75.568 38.3753 75.5828 39.0188C75.5593 39.682 75.7255 40.3383 76.0621 40.9121C76.2153 41.1227 76.4116 41.2989 76.6382 41.4293C76.8649 41.5595 77.1166 41.6409 77.3771 41.668C77.6377 41.6952 77.9011 41.6675 78.1501 41.5869C78.3992 41.5061 78.6282 41.3743 78.8222 41.1998C79.1526 40.8297 79.3729 40.376 79.4589 39.8892H80.6902C80.5503 40.8855 80.2005 41.6113 79.6408 42.0667C79.0257 42.5443 78.2596 42.7901 77.4789 42.7602C77.028 42.7759 76.5796 42.6868 76.1696 42.5003C75.7596 42.3137 75.3993 42.0345 75.1175 41.6852C74.5137 40.9244 74.2013 39.9759 74.236 39.0084C74.236 37.6931 74.5578 36.6703 75.2015 35.9398C75.5014 35.5878 75.8769 35.3066 76.3007 35.117C76.7243 34.9274 77.1855 34.8342 77.6502 34.844C78.3961 34.8065 79.1327 35.0217 79.7387 35.4543Z" fill="#959595"/>
<path d="M86.3057 32.231H87.5756V36.045C87.8023 35.7409 88.0748 35.473 88.3837 35.2511C88.8434 34.9709 89.3766 34.8321 89.916 34.8523C91.0097 34.8523 91.7513 35.2314 92.1408 35.9896C92.3802 36.5355 92.4891 37.1289 92.4591 37.7233V42.5222H91.1543V37.8066C91.1806 37.3935 91.1087 36.9802 90.9444 36.5999C90.7135 36.1873 90.2797 35.9827 89.6465 35.9827C89.1196 35.9835 88.611 36.1747 88.2157 36.5202C87.7889 36.8669 87.5756 37.5603 87.5756 38.5555V42.5222H86.3057V32.231Z" fill="#959595"/>
<path d="M98.666 35.0066H99.8694V36.0677C100.174 35.6751 100.562 35.3541 101.006 35.128C101.422 34.9312 101.878 34.8327 102.339 34.8402C103.41 34.8402 104.133 35.2101 104.508 35.9497C104.742 36.4971 104.849 37.0897 104.819 37.6835V42.4823H103.529V37.7667C103.544 37.3888 103.475 37.0121 103.326 36.664C103.216 36.4384 103.04 36.2511 102.821 36.1273C102.602 36.0034 102.349 35.9487 102.098 35.9706C101.847 35.9648 101.598 35.9951 101.356 36.0607C100.997 36.1725 100.679 36.3873 100.443 36.678C100.246 36.8958 100.104 37.1574 100.03 37.4407C99.9574 37.813 99.9256 38.1921 99.9358 38.5711V42.4893H98.666V35.0066Z" fill="#959595"/>
<path d="M116.538 35.8031C117.21 36.4457 117.546 37.3912 117.546 38.6395C117.59 39.7051 117.279 40.7555 116.661 41.6283C116.066 42.4154 115.15 42.8108 113.904 42.8108C113.439 42.831 112.976 42.748 112.547 42.568C112.119 42.388 111.736 42.1156 111.427 41.7705C110.786 40.9782 110.461 39.9798 110.514 38.9654C110.514 37.7078 110.836 36.7058 111.48 35.9592C111.799 35.5908 112.198 35.299 112.647 35.1055C113.096 34.9122 113.583 34.8222 114.072 34.8427C114.527 34.8314 114.98 34.9106 115.403 35.0755C115.827 35.2405 116.213 35.4879 116.538 35.8031ZM115.755 40.7789C116.073 40.1225 116.233 39.4021 116.223 38.6742C116.242 38.0862 116.123 37.502 115.874 36.9681C115.705 36.6324 115.439 36.3541 115.11 36.1689C114.781 35.9835 114.404 35.8997 114.027 35.928C113.69 35.9053 113.353 35.9755 113.055 36.131C112.756 36.2865 112.506 36.5212 112.333 36.8086C111.967 37.4556 111.784 38.189 111.805 38.9307C111.78 39.6323 111.964 40.3257 112.333 40.9245C112.519 41.1909 112.771 41.4046 113.066 41.5439C113.361 41.6833 113.687 41.7435 114.013 41.7185C114.859 41.7232 115.44 41.4099 115.755 40.7789Z" fill="#959595"/>
<path d="M123.41 32.2534H124.677V42.5168H123.41V32.2534Z" fill="#959595"/>
<path d="M136.432 35.8033C137.103 36.4459 137.439 37.3914 137.439 38.6395C137.482 39.7057 137.17 40.756 136.551 41.6285C135.961 42.4145 135.042 42.8087 133.794 42.8108C133.33 42.831 132.867 42.7482 132.439 42.5682C132.011 42.3882 131.629 42.1157 131.321 41.7707C130.677 40.9796 130.35 39.9807 130.404 38.9656C130.404 37.708 130.726 36.706 131.37 35.9593C131.689 35.5907 132.088 35.2987 132.538 35.1052C132.988 34.9119 133.476 34.8221 133.965 34.8427C134.42 34.8316 134.873 34.9108 135.297 35.0757C135.72 35.2407 136.106 35.488 136.432 35.8033ZM135.645 40.7791C135.962 40.1226 136.123 39.4023 136.113 38.6743C136.134 38.0862 136.014 37.5018 135.764 36.9683C135.595 36.6326 135.329 36.3543 135 36.1689C134.671 35.9837 134.294 35.8999 133.916 35.9282C133.58 35.9057 133.244 35.9762 132.946 36.1316C132.648 36.2871 132.399 36.5215 132.227 36.8088C131.859 37.4551 131.676 38.1889 131.699 38.9309C131.672 39.6326 131.856 40.3266 132.227 40.9247C132.411 41.1911 132.663 41.4047 132.957 41.5441C133.251 41.6835 133.577 41.7437 133.903 41.7187C134.754 41.7232 135.334 41.4101 135.645 40.7791Z" fill="#959595"/>
<path d="M147.492 35.3305C147.768 35.5252 148.014 35.7589 148.223 36.0239V35.0807H149.395V41.8872C149.43 42.6595 149.285 43.4294 148.972 44.1376C148.445 45.15 147.452 45.6575 145.991 45.6598C145.267 45.6843 144.553 45.4961 143.938 45.1189C143.658 44.9294 143.428 44.6771 143.266 44.3822C143.105 44.0874 143.016 43.7587 143.007 43.4233H144.298C144.331 43.7119 144.453 43.9833 144.648 44.2001C145.026 44.5099 145.513 44.6604 146.001 44.6195C146.974 44.6195 147.611 44.2785 147.911 43.5967C148.088 43.1967 148.171 42.4825 148.156 41.4539C147.93 41.8111 147.614 42.1048 147.24 42.3068C146.796 42.5091 146.312 42.6043 145.823 42.5843C145.022 42.5896 144.251 42.2804 143.679 41.7242C143.068 41.1487 142.761 40.1963 142.759 38.8671C142.759 37.6143 143.068 36.6365 143.686 35.9336C143.957 35.6054 144.299 35.3416 144.686 35.1615C145.073 34.9815 145.497 34.89 145.924 34.8935C146.48 34.8794 147.025 35.0317 147.492 35.3305ZM147.646 36.6793C147.468 36.4636 147.243 36.291 146.988 36.1744C146.732 36.0579 146.454 36.0005 146.172 36.0066C145.772 35.9847 145.375 36.0949 145.043 36.32C144.712 36.5451 144.464 36.8726 144.34 37.2513C144.148 37.8089 144.061 38.3963 144.081 38.985C144.034 39.6656 144.216 40.3425 144.599 40.9094C144.761 41.1235 144.973 41.2952 145.217 41.4099C145.46 41.5247 145.729 41.579 145.998 41.5683C146.407 41.5906 146.815 41.4843 147.16 41.2646C147.505 41.0449 147.772 40.7229 147.922 40.3442C148.138 39.8342 148.243 39.2848 148.23 38.7319C148.226 37.8096 148.03 37.1265 147.646 36.6827V36.6793Z" fill="#959595"/>
<path d="M155.63 32.2534H156.918V33.6785H155.63V32.2534ZM155.63 35.0689H156.918V42.5168H155.63V35.0689Z" fill="#959595"/>
<path d="M167.872 35.2091C168.336 35.4252 168.734 35.7591 169.024 36.1765C169.286 36.5758 169.459 37.0262 169.531 37.4976C169.621 38.0419 169.657 38.5933 169.643 39.1446H164.108C164.1 39.7945 164.29 40.4319 164.654 40.972C164.838 41.2074 165.077 41.394 165.351 41.5151C165.626 41.6361 165.926 41.6879 166.225 41.6654C166.52 41.6786 166.816 41.6273 167.09 41.5153C167.363 41.4033 167.61 41.2332 167.81 41.017C168.035 40.7659 168.198 40.467 168.29 40.1433H169.539C169.486 40.467 169.375 40.7785 169.209 41.0621C169.048 41.3697 168.838 41.6494 168.587 41.8908C168.19 42.2687 167.694 42.5294 167.156 42.6432C166.812 42.7244 166.459 42.7629 166.106 42.7576C165.657 42.7646 165.212 42.6776 164.8 42.5025C164.388 42.3275 164.017 42.0683 163.714 41.7417C163.063 41.0483 162.734 40.1121 162.734 38.8915C162.687 37.8287 163.038 36.7862 163.72 35.965C164.039 35.5984 164.436 35.3072 164.883 35.1127C165.33 34.9183 165.814 34.8257 166.301 34.8416C166.848 34.8388 167.386 34.9649 167.872 35.2091ZM168.345 38.146C168.322 37.6908 168.203 37.2455 167.995 36.8389C167.821 36.5381 167.565 36.2927 167.254 36.1317C166.944 35.9708 166.594 35.9009 166.246 35.9304C165.971 35.9249 165.698 35.9778 165.446 36.0854C165.192 36.193 164.966 36.353 164.78 36.5544C164.378 36.9892 164.155 37.5565 164.151 38.146H168.345Z" fill="#959595"/>
<path d="M176.284 40.1805C176.296 40.5245 176.404 40.8584 176.599 41.1444C176.921 41.5501 177.473 41.7512 178.264 41.7512C178.696 41.7608 179.124 41.6568 179.502 41.4495C179.672 41.3596 179.814 41.2236 179.908 41.0572C180.004 40.8909 180.051 40.701 180.04 40.5099C180.045 40.3598 180.007 40.2115 179.932 40.0817C179.855 39.9519 179.745 39.8456 179.61 39.7747C179.263 39.6213 178.899 39.5051 178.526 39.4281L177.515 39.1749C177.016 39.0707 176.536 38.8917 176.091 38.6445C175.839 38.5041 175.63 38.2989 175.486 38.0503C175.343 37.8018 175.27 37.5194 175.276 37.2332C175.263 36.9052 175.325 36.5785 175.459 36.2781C175.592 35.9776 175.792 35.7113 176.046 35.4994C176.635 35.0376 177.373 34.8046 178.123 34.8442C179.262 34.8442 180.078 35.1747 180.573 35.8358C180.876 36.2233 181.037 36.7013 181.031 37.1915H179.83C179.808 36.9093 179.704 36.6394 179.53 36.4149C179.235 36.0855 178.732 35.919 178.011 35.919C177.629 35.8926 177.247 35.9886 176.924 36.193C176.808 36.273 176.712 36.3804 176.647 36.5057C176.583 36.6308 176.549 36.7701 176.552 36.9107C176.555 37.0727 176.602 37.2313 176.687 37.3692C176.773 37.5073 176.895 37.6197 177.04 37.6944C177.299 37.8372 177.581 37.94 177.872 37.9995L178.712 38.204C179.352 38.3239 179.969 38.5379 180.545 38.8385C180.79 39.0049 180.989 39.2324 181.118 39.4984C181.247 39.7643 181.304 40.0593 181.282 40.3538C181.286 40.6797 181.22 41.0027 181.088 41.3015C180.957 41.6002 180.763 41.8681 180.52 42.0875C180.008 42.573 179.233 42.8158 178.19 42.8158C177.067 42.8158 176.27 42.5625 175.804 42.0564C175.333 41.5418 175.066 40.8754 175.053 40.1805H176.284Z" fill="#959595"/>
</svg>
