<svg width="162" height="23" viewBox="0 0 162 23" fill="none" xmlns="http://www.w3.org/2000/svg">
<g clip-path="url(#clip0_809_141)">
<path d="M76.4615 0.359375V20.6176H90.2802V20.0511H77.0303V10.3641H89.3834V9.79529H77.0303V0.92634H90.1641V0.359375H76.4615ZM124.24 0.360275V12.6171C124.24 15.3376 123.585 17.349 122.279 18.6516C120.972 19.9548 119.07 20.6054 116.575 20.6054C114.079 20.6054 112.178 19.9548 110.871 18.6516C109.566 17.349 108.911 15.3376 108.911 12.6171V0.360275H109.486V12.6171C109.486 15.0537 110.062 16.9044 111.214 18.1697C112.366 19.4355 114.154 20.0686 116.575 20.0686C118.996 20.0686 120.783 19.4355 121.936 18.1697C123.088 16.9044 123.665 15.0537 123.665 12.6171V0.360275H124.24ZM161.02 0.370174L152.573 12.0758V20.6054H151.997V12.0758L143.577 0.370174H144.307L152.284 11.48L160.32 0.370174H161.02ZM109.53 20.6054L101.286 0.370174H100.526L92.076 20.6054H92.7181L95.4958 13.9598H101.222V13.3793H95.7293L100.877 0.938039H100.935L105.905 13.3798L106.385 14.5542L108.887 20.6054H109.53ZM74.3552 13.0216C74.0821 12.4069 73.7171 11.8872 73.2595 11.462C72.7926 11.0311 72.2473 10.6939 71.6531 10.4689C71.0324 10.2316 70.3758 10.1019 69.7115 10.0855V10.0293C70.3518 9.99193 70.9399 9.84479 71.4754 9.5892C71.9957 9.34438 72.4653 9.004 72.8599 8.58577C73.2518 8.16356 73.5629 7.67308 73.7779 7.13866C74.0015 6.59045 74.1156 6.00373 74.1136 5.41166C74.1136 4.56212 73.9624 3.82551 73.66 3.2023C73.367 2.58953 72.9379 2.05178 72.4055 1.6301C71.87 1.20487 71.2477 0.888542 70.5372 0.680655C69.8262 0.473218 69.0626 0.368824 68.245 0.368824H60.8799L61.1197 0.92679H68.2473C68.9879 0.92679 69.6804 1.01768 70.3217 1.19677C70.9656 1.37541 71.5262 1.64945 72.0027 2.01887C72.4813 2.38719 72.8671 2.86224 73.1295 3.40614C73.4008 3.9641 73.5381 4.62871 73.5381 5.40446C73.5381 6.12127 73.3905 6.75303 73.0998 7.30155C72.8153 7.83963 72.4159 8.30849 71.9299 8.67486C71.443 9.04384 70.8823 9.31742 70.2497 9.49696C69.6152 9.67695 68.9492 9.76559 68.2473 9.76559H64.9265L65.1825 10.3587H68.2527C68.9938 10.3587 69.7187 10.4442 70.4305 10.6133C71.142 10.7843 71.776 11.0579 72.3312 11.435C72.8887 11.8121 73.336 12.3034 73.6766 12.9082C74.0186 13.5116 74.1896 14.2581 74.1896 15.145C74.1896 15.9766 74.033 16.6997 73.7216 17.313C73.421 17.9141 72.9855 18.4377 72.4491 18.8429C71.9123 19.2492 71.2792 19.5511 70.548 19.75C70.1592 19.8558 69.7515 19.93 69.3263 19.9791L69.5441 20.4839C69.9209 20.4299 70.2939 20.3522 70.6609 20.2513C71.5073 20.0151 72.2327 19.6704 72.8361 19.2173C73.4373 18.7654 73.9228 18.1774 74.2526 17.5015C74.5937 16.8131 74.7638 16.0121 74.7638 15.1054C74.7638 14.3306 74.627 13.6372 74.3552 13.0216Z" fill="#959595" stroke="#959595" stroke-width="1.31964"/>
<path d="M0.574988 9.77935V0.374023H-0.000976562V20.6097H0.574988V10.3616H10.0492V9.77935H0.574988ZM15.2117 0.374023V20.6097H15.7877V0.374473L15.2117 0.374023ZM33.0387 0.374023V13.0668C33.0387 15.7865 32.3849 17.7988 31.0782 19.1014C29.7719 20.4045 27.8703 21.0566 25.3761 21.0566C22.8788 21.0566 20.9772 20.4045 19.6705 19.1014C18.3651 17.7988 17.7117 15.7865 17.7117 13.0668V0.374023H18.2863V13.0668C18.2863 15.503 18.8614 17.3546 20.0142 18.6195C21.1662 19.8844 22.9539 20.517 25.3761 20.517C27.7961 20.517 29.5843 19.8844 30.7353 18.62C31.8872 17.3546 32.4641 15.503 32.4641 13.0668V0.374023H33.0387ZM41.4923 20.0252C42.7194 20.0252 43.883 19.8326 44.9841 19.4448C46.0843 19.0587 47.0504 18.4728 47.8783 17.6881C48.7063 16.9042 49.3578 15.9134 49.8357 14.7142C50.3127 13.515 50.5503 12.1021 50.5503 10.4777C50.5503 8.59052 50.3073 7.03091 49.8204 5.80474C49.3344 4.57587 48.691 3.59853 47.8918 2.87092C47.0936 2.14556 46.1909 1.63935 45.1888 1.35676C44.1856 1.07296 43.1478 0.929856 42.1052 0.931539H35.5311V20.0252H41.4923ZM42.2537 0.382123C43.2841 0.382123 44.3303 0.538263 45.3904 0.850094C46.4515 1.16103 47.4045 1.70054 48.2509 2.46369C49.0978 3.22955 49.7871 4.26448 50.3235 5.5667C50.8589 6.86982 51.1262 8.51267 51.1262 10.4957C51.1262 12.3091 50.854 13.8574 50.3091 15.1426C49.7646 16.4263 49.0348 17.4703 48.1191 18.2735C47.2116 19.0725 46.1485 19.6749 44.9967 20.0428C43.8181 20.4222 42.587 20.6136 41.3488 20.6097H34.9547V0.382123H42.2537ZM67.2307 20.6192L58.9859 0.383923H58.2241L49.7759 20.6192H50.4193L53.1966 13.9735H58.9229V13.3931H53.4305L58.5755 0.951788H58.6354L63.6044 13.3935L64.085 14.568L66.5864 20.6192H67.2307Z" fill="white" stroke="white" stroke-width="0.131964"/>
<path d="M126.053 0.65918H141.625V1.22614H134.111V20.9043H133.536V1.22614H126.053V0.65918Z" fill="#4B4B4B" stroke="#959595" stroke-width="1.31964"/>
</g>
<defs>
<clipPath id="clip0_809_141">
<rect width="161.024" height="22.0281" fill="white"/>
</clipPath>
</defs>
</svg>
