<svg width="155" height="33" viewBox="0 0 155 33" fill="none" xmlns="http://www.w3.org/2000/svg">
<path fill-rule="evenodd" clip-rule="evenodd" d="M53.021 4.89111C53.0272 4.89111 53.0423 4.89612 53.0523 4.90238C53.0673 4.91114 53.0598 4.92865 53.0097 5.00499C52.9759 5.05629 52.9146 5.16266 52.8746 5.2415C52.8333 5.32033 52.777 5.44422 52.7494 5.5168C52.7219 5.58937 52.6869 5.69074 52.6706 5.74204C52.6556 5.79335 52.6306 5.88595 52.6155 5.94852C52.6018 6.00983 52.5792 6.12621 52.568 6.20505C52.5505 6.31266 52.5455 6.42654 52.5455 6.65554C52.5455 6.88329 52.5517 7.00091 52.568 7.11229C52.5792 7.19488 52.6018 7.3125 52.6168 7.37507C52.6306 7.43639 52.6556 7.53274 52.6718 7.5878C52.6869 7.64286 52.7119 7.7217 52.7257 7.763C52.7407 7.80429 52.7569 7.84934 52.7644 7.8631C52.7707 7.87687 52.7907 7.92442 52.8095 7.96947C52.827 8.01452 52.8646 8.09586 52.8933 8.15092C52.9209 8.20598 52.9772 8.30734 53.0185 8.37616C53.0598 8.44499 53.1286 8.54635 53.1724 8.60141C53.2149 8.65647 53.2838 8.73531 53.3238 8.7766C53.3639 8.8179 53.4227 8.87171 53.4527 8.89673C53.484 8.92176 53.5365 8.9593 53.5716 8.98057C53.6054 9.00185 53.6692 9.03063 53.7117 9.04439C53.7593 9.06066 53.8219 9.07067 53.8682 9.07067C53.9207 9.07067 53.9658 9.06191 54.0033 9.04439C54.0346 9.03063 54.0984 8.98683 54.1472 8.94679C54.1948 8.90674 54.2598 8.85794 54.2911 8.83792C54.3224 8.8179 54.3524 8.79662 54.3599 8.79162C54.3662 8.78536 54.4087 8.75783 54.4538 8.72905C54.4988 8.69902 54.5602 8.66148 54.5914 8.64521C54.6227 8.62769 54.664 8.60266 54.6853 8.5889C54.7066 8.57513 54.7516 8.5501 54.7854 8.53259C54.8192 8.51507 54.853 8.49755 54.8605 8.49129C54.8667 8.48628 54.9093 8.46251 54.9543 8.43873C54.9994 8.41496 55.2096 8.30859 55.4236 8.20222C55.6363 8.09586 55.8365 7.99825 55.8678 7.98324C55.8991 7.96947 55.9317 7.95696 55.9392 7.95696C55.9479 7.95696 55.9554 7.9507 55.9554 7.94444C55.9554 7.93694 55.9742 7.92692 55.9955 7.91942C56.018 7.91316 56.0593 7.89564 56.0868 7.88188C56.1144 7.86811 56.1444 7.85685 56.1519 7.85685C56.1607 7.85685 56.1682 7.85309 56.1682 7.84684C56.1682 7.84183 56.1919 7.83057 56.2207 7.82181C56.2508 7.81305 56.2958 7.78927 56.3208 7.76925C56.3471 7.74798 56.3759 7.71795 56.3834 7.70168C56.3922 7.68541 56.4097 7.65288 56.4234 7.63035C56.436 7.60658 56.4823 7.534 56.5248 7.46892C56.5686 7.40385 56.6212 7.32752 56.6424 7.29999C56.665 7.27246 56.7037 7.22491 56.7288 7.19362C56.7538 7.16234 56.8339 7.0785 56.9065 7.00592C56.979 6.93334 57.0629 6.8545 57.0942 6.82948C57.1255 6.80445 57.1943 6.7544 57.2468 6.71936C57.3006 6.68432 57.3469 6.65554 57.3507 6.65554C57.3545 6.65554 57.3895 6.63677 57.4283 6.61424C57.4683 6.59172 57.5171 6.56669 57.5384 6.55918C57.5584 6.55042 57.621 6.5279 57.6761 6.50663C57.7311 6.48535 57.81 6.46158 57.8512 6.45407C57.8925 6.44531 57.9351 6.4353 57.9451 6.42904C57.9551 6.42404 58.0252 6.41402 58.1015 6.40652C58.2079 6.39651 58.2404 6.39651 58.2479 6.40902C58.2517 6.41653 58.2429 6.4403 58.2292 6.46158C58.2141 6.4816 58.1979 6.50037 58.1916 6.50162C58.1866 6.50412 58.1829 6.51038 58.1829 6.51789C58.1829 6.52414 58.1703 6.55668 58.1541 6.58922C58.1328 6.63552 58.1265 6.67055 58.1265 6.74313C58.1278 6.81947 58.1328 6.847 58.1578 6.88829C58.1754 6.91707 58.2054 6.95336 58.2267 6.97088C58.2467 6.9884 58.288 7.01468 58.3168 7.0297C58.3468 7.04346 58.4081 7.06223 58.4544 7.06849C58.5157 7.0785 58.5733 7.0785 58.6584 7.06724C58.7234 7.05973 58.7923 7.04596 58.811 7.03595C58.8311 7.02594 58.8536 7.01843 58.8611 7.01843C58.8699 7.01843 58.8999 7.00717 58.9274 6.99215C58.955 6.97839 59 6.95086 59.0275 6.93334C59.0551 6.91457 59.1114 6.86577 59.1527 6.82447C59.194 6.78318 59.2465 6.72061 59.2678 6.68682C59.2903 6.65178 59.3128 6.618 59.3178 6.61174C59.3241 6.60423 59.3429 6.56794 59.3604 6.5304C59.3792 6.49286 59.3979 6.44781 59.4029 6.43029C59.4079 6.41277 59.4167 6.39275 59.423 6.38649C59.428 6.37899 59.4417 6.33769 59.453 6.29264C59.4655 6.24759 59.4855 6.15749 59.498 6.09242C59.5118 6.02735 59.5281 5.92224 59.5356 5.86092C59.5431 5.79585 59.5468 5.58812 59.5443 5.37039C59.5431 5.16141 59.5443 4.99122 59.5493 4.99122C59.5556 4.99122 59.6007 5.02376 59.6495 5.06505C59.6995 5.1051 59.7646 5.16516 59.7946 5.19895C59.8246 5.23274 59.8785 5.30532 59.9147 5.36038C59.951 5.41544 59.9923 5.48301 60.0073 5.51054C60.0211 5.53807 60.0474 5.59188 60.0637 5.62942C60.0812 5.66696 60.115 5.75706 60.1387 5.82964C60.1625 5.90222 60.1938 6.01484 60.2076 6.07991C60.2213 6.14498 60.2389 6.23007 60.2464 6.26761C60.2539 6.30516 60.2651 6.38649 60.2726 6.44906C60.2789 6.51038 60.2877 6.66054 60.2889 6.78067C60.2927 6.96462 60.2977 7.00717 60.3177 7.04847C60.3327 7.07975 60.3577 7.10478 60.3878 7.11979C60.414 7.13356 60.4478 7.14357 60.4628 7.14357C60.4791 7.14357 60.5192 7.13481 60.5542 7.1223C60.588 7.11103 60.6343 7.08976 60.6543 7.076C60.6756 7.06098 60.7144 7.02719 60.7419 6.99966C60.7694 6.97088 60.807 6.92583 60.8257 6.89955C60.8433 6.87202 60.8708 6.82697 60.8846 6.79944C60.8996 6.77191 60.9108 6.74063 60.9108 6.73062C60.9096 6.72061 60.9196 6.69808 60.9321 6.68182C60.9484 6.66054 60.9596 6.65554 60.9722 6.66305C60.9872 6.67181 60.9884 6.70059 60.9822 6.81822C60.9772 6.89705 60.9671 6.98214 60.9609 7.00592C60.9534 7.0297 60.9484 7.08476 60.9484 7.1273C60.9484 7.20113 60.9509 7.20864 61.0472 7.3125L61.1386 7.31125C61.2062 7.31 61.2437 7.30249 61.2862 7.28122C61.3175 7.2662 61.3688 7.23117 61.4014 7.20489C61.4352 7.17861 61.4689 7.15859 61.4764 7.16234C61.4852 7.16484 61.5027 7.19738 61.5152 7.23367C61.5315 7.28247 61.5365 7.33878 61.5365 7.45015C61.5365 7.5365 61.529 7.63035 61.519 7.66914C61.5102 7.70668 61.4977 7.76049 61.4927 7.78802C61.4877 7.81555 61.4702 7.88062 61.4539 7.93193C61.4377 7.98324 61.4239 8.04455 61.4239 8.06583C61.4239 8.08835 61.4301 8.11963 61.4377 8.13465C61.4452 8.15092 61.4639 8.17595 61.479 8.19221C61.4927 8.20723 61.5328 8.2285 61.5678 8.23726C61.6016 8.24727 61.6554 8.25854 61.6867 8.26354C61.718 8.26855 61.8018 8.28607 61.8744 8.30359C61.947 8.31985 62.0308 8.34238 62.0621 8.35114C62.0934 8.36115 62.1685 8.38367 62.231 8.40119C62.2923 8.41996 62.3624 8.44249 62.3837 8.4525C62.4062 8.46251 62.4325 8.47002 62.44 8.47002C62.4488 8.47002 62.47 8.47752 62.4876 8.48628C62.5051 8.4963 62.5414 8.51006 62.5689 8.52007C62.5964 8.52883 62.6302 8.54385 62.644 8.55261C62.6577 8.56262 62.6778 8.57013 62.6878 8.57013C62.6978 8.57013 62.8054 8.61893 62.9255 8.67899C63.0457 8.73906 63.147 8.79162 63.1508 8.79662C63.1545 8.80038 63.172 8.81164 63.1908 8.82165C63.2096 8.83166 63.2672 8.8642 63.3197 8.89548C63.371 8.92676 63.4136 8.95555 63.4136 8.96055C63.4136 8.96681 63.4186 8.97056 63.4261 8.97056C63.4323 8.97056 63.5074 9.02312 63.5913 9.08569C63.6751 9.14951 63.8077 9.26213 64.0267 9.47111H64.1769L64.287 9.36099C64.3471 9.30092 64.4134 9.2321 64.4347 9.20832C64.4559 9.18455 64.5073 9.12198 64.5473 9.07067C64.5886 9.01937 64.6549 8.92551 64.6962 8.8642C64.7375 8.80163 64.7801 8.73405 64.7913 8.71403C64.8026 8.69276 64.8376 8.62393 64.8702 8.56012C64.9014 8.49755 64.9277 8.44249 64.9277 8.43873C64.9277 8.43498 64.9365 8.41371 64.9465 8.39118C64.9565 8.36991 64.9765 8.31735 64.9903 8.27606C65.0053 8.23476 65.0303 8.14716 65.0466 8.08209C65.0629 8.01702 65.0854 7.90565 65.0954 7.83432C65.1067 7.76425 65.1154 7.63285 65.1154 7.54401C65.1154 7.45391 65.1067 7.31 65.0966 7.22115C65.0866 7.13356 65.0666 7.01468 65.0529 6.95587C65.0378 6.89705 65.0153 6.80946 65.0015 6.7619C64.9865 6.7131 64.964 6.64302 64.949 6.60548C64.9352 6.56794 64.9139 6.51413 64.9014 6.4866C64.8877 6.45907 64.8777 6.43279 64.8777 6.42654C64.8777 6.42153 64.8414 6.34645 64.7988 6.2576C64.755 6.17001 64.6875 6.04487 64.6474 5.9798C64.6086 5.91473 64.5773 5.85967 64.5773 5.85717C64.5773 5.85592 64.5198 5.77458 64.4509 5.67572C64.3809 5.57811 64.287 5.45298 64.242 5.39792C64.1969 5.34286 64.1569 5.2953 64.1531 5.29155C64.1494 5.2878 64.1093 5.24275 64.0643 5.19144C64.0192 5.14013 63.9717 5.08883 63.9592 5.07882C63.9454 5.06881 63.9391 5.05254 63.9429 5.04378C63.9504 5.03252 63.9629 5.03127 64.0042 5.04378C64.0342 5.05129 64.0693 5.06505 64.083 5.07506C64.0968 5.08382 64.1156 5.09133 64.1231 5.09133C64.1318 5.09133 64.1706 5.1051 64.2082 5.12262C64.2457 5.14013 64.2795 5.1539 64.2833 5.1539C64.287 5.1539 64.3208 5.16766 64.3583 5.18518C64.3959 5.2027 64.4322 5.21647 64.4397 5.21647C64.4459 5.21647 64.4522 5.22147 64.4522 5.22898C64.4522 5.23524 64.4572 5.2415 64.4647 5.2415C64.471 5.2415 64.4985 5.25151 64.5235 5.26402C64.5498 5.27653 64.6274 5.31658 64.6962 5.35287C64.765 5.39041 64.8226 5.42419 64.8239 5.43045C64.8264 5.43671 64.8351 5.44171 64.8426 5.44171C64.8514 5.44171 64.9152 5.48051 64.984 5.52556C65.0529 5.57186 65.1179 5.6169 65.1279 5.62566C65.1379 5.63442 65.1943 5.67947 65.2531 5.72452C65.3119 5.76957 65.3982 5.84465 65.447 5.89095C65.4946 5.93725 65.5659 6.00858 65.6035 6.04988C65.641 6.08992 65.7073 6.17001 65.7511 6.22632C65.7937 6.28388 65.8287 6.33519 65.8287 6.3427C65.8287 6.34895 65.8325 6.35521 65.8375 6.35521C65.8437 6.35521 65.88 6.41027 65.9188 6.47659C65.9576 6.54417 66.0114 6.64678 66.0389 6.70559C66.0665 6.76441 66.0977 6.83949 66.1103 6.87453C66.1215 6.90831 66.1365 6.94836 66.1428 6.96212C66.149 6.97589 66.1628 7.02094 66.1741 7.06223C66.1853 7.10353 66.2016 7.1736 66.2116 7.21865C66.2216 7.2637 66.2354 7.32377 66.2416 7.35255C66.2492 7.38258 66.2604 7.46392 66.2679 7.534C66.2767 7.61659 66.2792 7.78927 66.2754 8.01327C66.2704 8.20598 66.2617 8.39118 66.2554 8.42622C66.2492 8.46001 66.2316 8.5501 66.2179 8.62644C66.2041 8.70152 66.1866 8.79537 66.1791 8.83291C66.1716 8.87045 66.1541 8.94053 66.139 8.98933C66.1253 9.03689 66.1027 9.11572 66.089 9.16452C66.0752 9.21208 66.0502 9.29467 66.0339 9.34597C66.0177 9.39728 65.9989 9.45109 65.9926 9.46485C65.9864 9.47862 65.9689 9.52617 65.9538 9.57122C65.9388 9.61627 65.9088 9.69135 65.8888 9.74015C65.8687 9.7877 65.8437 9.84652 65.8337 9.86779C65.8237 9.89032 65.8074 9.93036 65.7949 9.95539C65.7836 9.98167 65.7499 10.0567 65.7198 10.1218C65.6898 10.1869 65.661 10.2495 65.6548 10.2595C65.6498 10.2695 65.626 10.3145 65.6035 10.3596C65.5797 10.4046 65.5246 10.506 65.4796 10.5848C65.4358 10.6637 65.3832 10.7513 65.3644 10.7788C65.3469 10.8063 65.3181 10.8564 65.2743 10.954L65.3031 11.0416C65.3181 11.0891 65.3357 11.1404 65.3407 11.1542C65.3469 11.168 65.3682 11.2355 65.3895 11.3044C65.4107 11.3732 65.4283 11.4383 65.4283 11.4483C65.4283 11.4583 65.4333 11.472 65.4395 11.4795C65.4458 11.4858 65.4595 11.5233 65.4708 11.5609C65.4808 11.5984 65.5008 11.6673 65.5159 11.7136C65.5296 11.7611 65.5521 11.8349 65.5659 11.88C65.5797 11.925 65.6022 11.9976 65.616 12.0427C65.6297 12.0877 65.6523 12.1603 65.666 12.2053C65.6798 12.2504 65.7023 12.323 65.7161 12.368C65.7298 12.4131 65.7524 12.4856 65.7661 12.5307C65.7799 12.5757 65.8037 12.6496 65.8174 12.6959C65.8325 12.7434 65.8537 12.8148 65.8662 12.8561C65.8775 12.8973 65.8913 12.9399 65.895 12.9499C65.8988 12.9599 65.9113 13 65.9213 13.0375C65.9313 13.075 65.9526 13.1451 65.9663 13.1939C65.9814 13.2415 66.0039 13.3178 66.0164 13.3629C66.0302 13.4079 66.0527 13.483 66.0665 13.5318C66.0815 13.5793 66.104 13.6557 66.1165 13.7007C66.129 13.7458 66.1516 13.8209 66.1653 13.8697C66.1791 13.9172 66.2141 14.0361 66.2429 14.1324C66.2704 14.2288 66.3067 14.3552 66.323 14.414C66.3393 14.4728 66.3643 14.5592 66.378 14.608C66.3918 14.6555 66.4256 14.7794 66.4544 14.8833C66.4832 14.9859 66.5144 15.0985 66.5245 15.1335C66.5332 15.1673 66.5532 15.2386 66.5683 15.29C66.582 15.3413 66.6083 15.4376 66.6258 15.5027C66.6421 15.5678 66.6646 15.6491 66.6734 15.6841C66.6821 15.7179 66.7047 15.803 66.7234 15.8718C66.7422 15.9407 66.7797 16.0846 66.806 16.1909C66.8335 16.2973 66.8811 16.4838 66.9111 16.6039C66.9412 16.724 66.99 16.918 67.0175 17.0356C67.0463 17.152 67.0801 17.2934 67.0926 17.3485C67.1063 17.4035 67.1251 17.4874 67.1364 17.5362C67.1476 17.5837 67.1677 17.6776 67.1814 17.7426C67.1952 17.8077 67.2177 17.9116 67.2315 17.9741C67.2452 18.0354 67.2678 18.1368 67.2803 18.1994C67.2928 18.2607 67.3153 18.3708 67.3303 18.4434C67.3454 18.516 67.3679 18.6336 67.3816 18.7062C67.3954 18.7788 67.4179 18.9026 67.4317 18.9815C67.4455 19.0603 67.468 19.193 67.4818 19.2756C67.4955 19.3581 67.518 19.502 67.5318 19.5947C67.5456 19.6873 67.5643 19.8449 67.5744 19.945C67.5844 20.0451 67.5981 20.1578 67.6056 20.1953C67.6119 20.2328 67.6244 20.3855 67.6319 20.5332C67.6407 20.6921 67.6432 20.9048 67.6382 21.0525C67.6332 21.1901 67.6244 21.3278 67.6194 21.3591C67.6131 21.3904 67.5994 21.4654 67.5869 21.528C67.5756 21.5893 67.5618 21.6456 67.5568 21.6531C67.5518 21.6594 67.5406 21.6882 67.5331 21.7157C67.5255 21.7432 67.5043 21.7933 67.4843 21.8283C67.4655 21.8621 67.4217 21.9184 67.3866 21.9535C67.3454 21.9948 67.2803 22.0373 67.0738 22.1412H66.9111C66.7722 22.1412 66.7359 22.1362 66.6609 22.1111C66.6121 22.0949 66.5207 22.0573 66.4569 22.0273C66.3943 21.9973 66.318 21.9572 66.2879 21.9385C66.2592 21.9197 66.2254 21.8984 66.2141 21.8909C66.2016 21.8846 66.1591 21.8559 66.1203 21.8296C66.0802 21.8021 65.9939 21.737 65.9288 21.6857C65.8637 21.6344 65.7899 21.5743 65.7661 21.5518C65.7424 21.5293 65.6936 21.4855 65.6598 21.4529C65.6247 21.4204 65.5772 21.3803 65.5534 21.3628C65.5184 21.3378 65.4983 21.3328 65.4533 21.3365C65.4195 21.3403 65.382 21.3528 65.3594 21.3703C65.3382 21.3854 65.3119 21.4191 65.2994 21.4442C65.2869 21.4704 65.2768 21.5205 65.2768 21.5593C65.2768 21.5968 65.2693 21.6782 65.2593 21.7407C65.2506 21.8021 65.233 21.9009 65.2218 21.9597C65.2118 22.0185 65.198 22.0774 65.1918 22.0911C65.1855 22.1049 65.173 22.1524 65.1617 22.1975C65.1517 22.2425 65.1329 22.3126 65.1217 22.3539C65.1104 22.3952 65.0966 22.434 65.0916 22.4415C65.0866 22.4478 65.0754 22.4853 65.0654 22.5228C65.0566 22.5604 65.0416 22.6054 65.0316 22.623C65.0228 22.6405 65.0153 22.6617 65.0153 22.6693C65.0153 22.678 65.0078 22.7043 64.9978 22.7256C64.989 22.7481 64.9703 22.7981 64.9552 22.8357C64.9415 22.8732 64.9139 22.9433 64.8952 22.9921C64.8777 23.0397 64.8551 23.096 64.8451 23.1172C64.8364 23.1373 64.8138 23.1911 64.7963 23.2361C64.7776 23.2812 64.74 23.3638 64.7137 23.4201C64.6875 23.4776 64.6649 23.5264 64.6649 23.5302C64.6649 23.5339 64.6474 23.574 64.6261 23.6203C64.6049 23.6678 64.5223 23.838 64.4422 23.9995C64.3621 24.1609 64.242 24.3949 64.1756 24.5188C64.1093 24.6427 63.9729 24.8879 63.8728 25.0631C63.7076 25.3497 63.6901 25.3885 63.6889 25.441C63.6889 25.4748 63.6964 25.5161 63.7064 25.5349C63.7151 25.5549 63.7414 25.5812 63.7652 25.5962C63.8015 25.6175 63.8365 25.6237 63.9892 25.6312C64.0893 25.6362 64.2582 25.6475 64.3646 25.6575C64.471 25.6675 64.6449 25.6813 64.7488 25.6888C64.8539 25.6951 64.9928 25.7076 65.0554 25.7138C65.1192 25.7213 65.2618 25.7351 65.3719 25.7451C65.4821 25.7551 65.6598 25.7714 65.7661 25.7814C65.8725 25.7914 65.9889 25.8052 66.0227 25.8127C66.0564 25.8202 66.1616 25.834 66.2542 25.8452C66.3468 25.8565 66.4882 25.8727 66.567 25.8828C66.6458 25.8928 66.7309 25.9065 66.7547 25.9128C66.7785 25.919 66.8548 25.9328 66.9236 25.9441C66.9925 25.9541 67.0988 25.9716 67.1614 25.9816C67.2227 25.9916 67.294 26.0054 67.3178 26.0129C67.3416 26.0192 67.4042 26.0329 67.4555 26.0429C67.5068 26.0529 67.5969 26.073 67.6557 26.0867C67.7145 26.1005 67.7996 26.1205 67.8459 26.1318C67.8934 26.143 67.941 26.1568 67.9523 26.1631C67.9648 26.1681 68.0061 26.1806 68.0436 26.1893C68.0812 26.1981 68.1174 26.2094 68.125 26.2144C68.1312 26.2194 68.1537 26.2269 68.175 26.2319C68.195 26.2369 68.2363 26.2519 68.2651 26.2657C68.2951 26.2782 68.3227 26.2895 68.3277 26.2895C68.3339 26.2895 68.3877 26.3145 68.4503 26.3458C68.5116 26.3758 68.5842 26.4196 68.6117 26.4421C68.653 26.4784 68.658 26.4884 68.6518 26.521C68.6468 26.541 68.6305 26.5723 68.6155 26.5885C68.6005 26.6048 68.5592 26.6386 68.5254 26.6649C68.4904 26.6899 68.4065 26.7374 68.3377 26.77C68.2689 26.8025 68.2038 26.8338 68.1938 26.8388C68.1838 26.8438 68.1074 26.8701 68.0248 26.8951C67.9423 26.9214 67.8659 26.9464 67.8559 26.9514C67.8459 26.9577 67.8034 26.9689 67.7621 26.9765C67.7208 26.9852 67.6757 26.9965 67.6619 27.0027C67.6482 27.009 67.5944 27.0228 67.5431 27.034C67.4918 27.0453 67.3954 27.0653 67.3303 27.0791C67.2653 27.0928 67.1489 27.1154 67.0738 27.1291C66.9975 27.1429 66.8686 27.1654 66.786 27.1792C66.7034 27.1929 66.557 27.2155 66.4606 27.2292C66.3643 27.2417 66.1953 27.2643 66.0852 27.278C65.9751 27.2918 65.7924 27.3118 65.6785 27.3218C65.5647 27.3318 65.447 27.3469 65.4157 27.3531C65.3845 27.3594 65.2606 27.3706 65.1404 27.3781C65.0203 27.3844 64.8852 27.3969 64.8401 27.4032C64.7951 27.4107 64.6174 27.4244 64.4459 27.4357C64.2733 27.4457 64.0543 27.4595 63.9579 27.4657C63.8616 27.472 63.6638 27.4833 63.5199 27.4908C63.3748 27.497 63.1445 27.5083 63.0069 27.5158C62.8692 27.522 62.5626 27.5333 62.3249 27.5408C62.0871 27.5483 61.7217 27.5608 61.5115 27.5671C61.3013 27.5746 60.339 27.5796 59.3717 27.5796C58.4044 27.5796 57.422 27.5746 57.188 27.5671C56.954 27.5608 56.5286 27.5483 56.2432 27.5408C55.9579 27.5333 55.6 27.522 55.4486 27.5158C55.2972 27.5095 54.9506 27.4958 54.679 27.4858C54.4075 27.4757 54.1222 27.4607 54.0471 27.4545C53.9708 27.447 53.7518 27.4345 53.5591 27.4282C53.3664 27.4207 53.1724 27.4094 53.1273 27.4032C53.0823 27.3969 52.9084 27.3856 52.7394 27.3781C52.5705 27.3706 52.4016 27.3594 52.364 27.3531C52.3265 27.3469 52.1801 27.3356 52.0387 27.3281C51.8973 27.3206 51.7421 27.3093 51.6945 27.3031C51.6457 27.2955 51.4968 27.2818 51.3629 27.2718C51.229 27.2618 51.02 27.2455 50.8999 27.2355C50.7798 27.2255 50.6446 27.2105 50.5996 27.2042C50.5545 27.1967 50.4307 27.1817 50.3243 27.1717C50.2179 27.1617 50.0377 27.1416 49.9239 27.1279C49.81 27.1141 49.636 27.0916 49.5359 27.0778C49.4358 27.0653 49.2806 27.0428 49.1918 27.029C49.1017 27.0152 48.9641 26.9927 48.8852 26.979C48.8064 26.9652 48.6825 26.9427 48.6099 26.9289C48.5373 26.9151 48.4272 26.8926 48.3659 26.8801C48.3033 26.8663 48.217 26.8463 48.1719 26.8338C48.1269 26.8225 48.0481 26.8 47.9967 26.7825C47.9454 26.7662 47.8916 26.7475 47.8779 26.7412C47.8641 26.7349 47.8203 26.7149 47.7803 26.6974C47.7415 26.6799 47.7052 26.6549 47.7014 26.6423C47.6964 26.6311 47.7002 26.5998 47.7102 26.5735C47.7202 26.546 47.759 26.4947 47.7953 26.4571C47.8328 26.4196 47.8679 26.3896 47.8729 26.3896C47.8779 26.3896 47.8904 26.3821 47.8991 26.3733C47.9079 26.3645 47.9567 26.3333 48.0055 26.3045C48.0556 26.2757 48.0994 26.2519 48.1031 26.2519C48.1069 26.2519 48.1507 26.2344 48.1995 26.2131C48.2495 26.1918 48.3096 26.1668 48.3309 26.1568C48.3534 26.1468 48.3797 26.1393 48.3872 26.1393C48.3959 26.1393 48.4172 26.1318 48.4347 26.123C48.4522 26.113 48.4973 26.0992 48.5348 26.0892C48.5724 26.0805 48.6087 26.0692 48.6162 26.0642C48.6224 26.0592 48.6625 26.0479 48.7038 26.0392C48.7451 26.0317 48.7876 26.0204 48.7976 26.0154C48.8076 26.0091 48.8552 25.9979 48.904 25.9904C48.9515 25.9816 49.0003 25.9704 49.0104 25.9641C49.0204 25.9591 49.0742 25.9478 49.1292 25.9391C49.1843 25.9316 49.2406 25.919 49.2544 25.9128C49.2681 25.9078 49.3357 25.8928 49.4045 25.8828C49.4734 25.8715 49.586 25.854 49.6548 25.844C49.7236 25.834 49.805 25.8202 49.8363 25.8139C49.8675 25.8064 49.9651 25.7927 50.0552 25.7814C50.1441 25.7714 50.2943 25.7551 50.3869 25.7451C50.4795 25.7351 50.6321 25.7188 50.7247 25.7088C50.8173 25.6976 50.9863 25.6825 51.1001 25.675C51.214 25.6675 51.3091 25.66 51.3129 25.6575C51.3166 25.6563 51.3754 25.6513 51.4443 25.6463C51.5131 25.6412 51.6845 25.6325 51.8259 25.6262C51.9673 25.62 52.1525 25.6112 52.2389 25.6075C52.3252 25.6037 52.4178 25.5949 52.4454 25.5874C52.4779 25.5799 52.5067 25.5612 52.5267 25.5349C52.5517 25.5023 52.558 25.4811 52.558 25.4198C52.558 25.3459 52.5555 25.3409 52.4516 25.1883C52.3928 25.1019 52.3252 25.0005 52.3014 24.963C52.2777 24.9255 52.2551 24.8879 52.2514 24.8817C52.2476 24.8742 52.2201 24.8266 52.1901 24.7753C52.1588 24.724 52.1275 24.6727 52.1187 24.6627C52.11 24.6527 52.085 24.6076 52.0612 24.5651C52.0387 24.5213 52.0099 24.4675 51.9974 24.4462C51.9848 24.4237 51.9498 24.3611 51.9198 24.306C51.8897 24.251 51.8134 24.1021 51.7508 23.9744C51.687 23.8468 51.6245 23.7229 51.6119 23.6991C51.5994 23.6754 51.5894 23.6453 51.5882 23.6328C51.5882 23.6215 51.5844 23.6115 51.5782 23.6115C51.5731 23.6115 51.5619 23.5878 51.5519 23.559C51.5431 23.5289 51.5306 23.4989 51.5256 23.4927C51.5206 23.4851 51.4868 23.4038 51.4505 23.3112C51.4142 23.2186 51.3729 23.111 51.3592 23.0734C51.3454 23.0359 51.3279 22.9846 51.3191 22.9608C51.3104 22.937 51.2916 22.8807 51.2766 22.8357C51.2628 22.7906 51.2415 22.7231 51.2315 22.6855C51.2203 22.648 51.2002 22.5742 51.1865 22.5228C51.1715 22.4715 51.1489 22.3814 51.1364 22.3226C51.1239 22.2638 51.1039 22.1599 51.0939 22.0911C51.0826 22.0223 51.0714 21.9572 51.0688 21.9472C51.0651 21.9372 51.0576 21.8634 51.0526 21.7845C51.0438 21.6531 51.0388 21.6369 51.0075 21.5968C50.9875 21.5731 50.9625 21.5493 50.9512 21.5443C50.94 21.5393 50.9024 21.5355 50.8686 21.5355C50.8298 21.5343 50.7948 21.5418 50.7748 21.5555C50.7573 21.5668 50.7072 21.6106 50.6622 21.6544C50.6171 21.6969 50.5658 21.7445 50.547 21.7608C50.5283 21.777 50.4982 21.8021 50.4807 21.8158C50.4632 21.8296 50.4394 21.8496 50.4282 21.8596C50.4169 21.8696 50.3756 21.9009 50.3381 21.9284C50.2993 21.956 50.2279 22.0023 50.1804 22.0298C50.1316 22.0586 50.0728 22.0911 50.049 22.1024C50.0252 22.1149 49.9764 22.1349 49.9426 22.1487C49.9076 22.1625 49.835 22.1837 49.7799 22.1975C49.7161 22.2138 49.6385 22.2225 49.5635 22.2225C49.4996 22.2225 49.4145 22.2138 49.3695 22.2025C49.3269 22.1912 49.2519 22.1637 49.2043 22.1399C49.1555 22.1162 49.0967 22.0799 49.0729 22.0586C49.0491 22.0373 49.0166 22.0123 49.0003 22.0023C48.9853 21.9923 48.9728 21.976 48.9728 21.966C48.9728 21.956 48.9666 21.9472 48.9603 21.9472C48.9528 21.9472 48.9328 21.9209 48.914 21.8871C48.8952 21.8546 48.8702 21.8083 48.8589 21.7845C48.8489 21.7608 48.8302 21.7007 48.8176 21.6531C48.8064 21.6043 48.7914 21.5117 48.7851 21.4467C48.7789 21.3816 48.7701 21.2089 48.7651 21.065C48.7601 20.9098 48.7626 20.6821 48.7713 20.5081C48.7801 20.3467 48.7914 20.174 48.7989 20.1265C48.8051 20.0777 48.8189 19.9688 48.8289 19.8825C48.8389 19.7961 48.8577 19.656 48.8702 19.5696C48.884 19.4833 48.8977 19.4019 48.9015 19.3882C48.9065 19.3744 48.9153 19.3206 48.9228 19.2693C48.929 19.218 48.944 19.1392 48.954 19.0941C48.9641 19.0491 48.9816 18.9677 48.9928 18.9127C49.0041 18.8576 49.0204 18.7725 49.0291 18.725C49.0379 18.6761 49.0491 18.6286 49.0529 18.6186C49.0579 18.6086 49.0717 18.5485 49.0854 18.4872C49.0992 18.4246 49.1167 18.3458 49.1242 18.312C49.1305 18.277 49.1442 18.2244 49.1543 18.1931C49.163 18.1618 49.178 18.103 49.1855 18.0617C49.1943 18.0204 49.2056 17.9804 49.2106 17.9741C49.2156 17.9666 49.2268 17.9253 49.2356 17.8803C49.2431 17.8352 49.2544 17.7927 49.2594 17.7864C49.2644 17.7789 49.2756 17.7401 49.2844 17.6988C49.2932 17.6575 49.3044 17.6175 49.3094 17.6112C49.3144 17.6037 49.3257 17.5649 49.3345 17.5236C49.3432 17.4823 49.3545 17.4423 49.3595 17.436C49.3645 17.4285 49.3758 17.3897 49.3845 17.3485C49.3933 17.3072 49.4058 17.2671 49.4108 17.2609C49.4158 17.2533 49.4271 17.2171 49.4358 17.1795C49.4446 17.142 49.4558 17.1044 49.4608 17.0982C49.4659 17.0907 49.4746 17.0631 49.4796 17.0356C49.4846 17.0081 49.4959 16.9718 49.5046 16.9543C49.5134 16.9368 49.5272 16.8917 49.5359 16.8542C49.5447 16.8166 49.5559 16.7791 49.561 16.7728C49.566 16.7653 49.5772 16.7315 49.5847 16.6977C49.5935 16.6627 49.6048 16.6289 49.6098 16.6227C49.616 16.6152 49.6273 16.5814 49.6348 16.5476C49.6435 16.5125 49.6548 16.4788 49.6611 16.4725C49.6661 16.465 49.6748 16.44 49.6798 16.4162C49.6848 16.3924 49.6961 16.3549 49.7049 16.3348C49.7136 16.3136 49.7386 16.2435 49.7599 16.1784C49.7812 16.1134 49.815 16.012 49.8363 15.9532C49.8575 15.8944 49.8826 15.8243 49.8913 15.7968C49.9001 15.7692 49.9514 15.6278 50.0039 15.4839C50.0565 15.3388 50.1078 15.2024 50.1178 15.1798C50.1278 15.1586 50.1366 15.1335 50.1366 15.1273C50.1366 15.1198 50.1441 15.096 50.1541 15.0735C50.1641 15.0522 50.1979 14.9684 50.2279 14.8895C50.258 14.8107 50.288 14.7318 50.293 14.7143C50.298 14.6968 50.3068 14.6768 50.3118 14.6705C50.3168 14.663 50.328 14.6355 50.3368 14.608C50.3456 14.5804 50.3568 14.5517 50.3618 14.5454C50.3668 14.5379 50.3781 14.5104 50.3869 14.4828C50.3956 14.4553 50.4069 14.4265 50.4119 14.4203C50.4169 14.4127 50.4256 14.394 50.4307 14.3765C50.4357 14.3589 50.4469 14.3277 50.4557 14.3076C50.4644 14.2864 50.487 14.2363 50.5045 14.195C50.5233 14.1537 50.5383 14.1137 50.5383 14.1074C50.537 14.0999 50.5483 14.0724 50.5608 14.0448C50.5733 14.0173 50.5958 13.966 50.6096 13.9322C50.6246 13.8972 50.6584 13.8158 50.6859 13.7508C50.7135 13.6857 50.761 13.5693 50.7923 13.4942C50.8248 13.4179 50.8574 13.3391 50.8661 13.3191C50.8761 13.2978 50.8949 13.2565 50.9087 13.2252C50.9237 13.1939 51.0063 13.005 51.0939 12.806C51.1815 12.6058 51.2716 12.4031 51.2941 12.3555C51.3166 12.3067 51.3517 12.2304 51.3742 12.1828C51.3955 12.1365 51.4305 12.0614 51.4518 12.0139C51.473 11.9676 51.5056 11.8988 51.5218 11.8612C51.5394 11.8237 51.5894 11.7173 51.6332 11.626C51.677 11.5359 51.7133 11.4545 51.7133 11.4483C51.7133 11.4408 51.7183 11.4358 51.7258 11.4358C51.7321 11.4358 51.7383 11.427 51.7383 11.417C51.7383 11.407 51.7634 11.3494 51.7934 11.2881C51.8234 11.228 51.8522 11.1667 51.856 11.1504C51.8597 11.1354 51.8685 11.1229 51.876 11.1229C51.8822 11.1229 51.8885 11.1154 51.8885 11.1066C51.8885 11.0991 51.9673 10.934 52.0637 10.7412C52.1751 10.5172 52.2389 10.3771 52.2389 10.3533C52.2389 10.332 52.2138 10.2707 52.1826 10.2157C52.1525 10.1606 52.1062 10.073 52.08 10.0217C52.0537 9.9704 52.0286 9.92535 52.0249 9.9216C52.0211 9.91785 51.9886 9.85653 51.9536 9.78395C51.9173 9.71137 51.8885 9.64505 51.8885 9.63629C51.8885 9.62878 51.8822 9.62127 51.876 9.62127C51.8685 9.62127 51.8635 9.61502 51.8635 9.60876C51.8635 9.60125 51.8459 9.5587 51.8247 9.51115C51.8047 9.46485 51.7821 9.41855 51.7771 9.40854C51.7709 9.39853 51.7508 9.34973 51.7321 9.30217C51.7133 9.25337 51.6883 9.19205 51.6758 9.16452C51.6632 9.13699 51.6495 9.1007 51.6457 9.08319C51.6407 9.06567 51.632 9.04064 51.6245 9.02687C51.6182 9.01311 51.6019 8.96806 51.5869 8.92676C51.5731 8.88547 51.5531 8.8229 51.5431 8.78911C51.5319 8.75408 51.5093 8.67524 51.4918 8.61392C51.4755 8.55136 51.4543 8.46751 51.4455 8.42622C51.4368 8.38492 51.423 8.32861 51.4155 8.30108C51.408 8.27355 51.3955 8.20848 51.3892 8.15718C51.3817 8.10587 51.3729 8.04956 51.3692 8.03204C51.3654 8.01452 51.3567 7.94194 51.3492 7.86936C51.3404 7.79053 51.3379 7.61909 51.3416 7.43764C51.3454 7.27246 51.3542 7.11479 51.3617 7.08726C51.3692 7.05973 51.3804 7.00091 51.3879 6.95587C51.3955 6.91082 51.4105 6.84324 51.4205 6.8057C51.4317 6.76816 51.4543 6.69183 51.4705 6.63677C51.4881 6.58171 51.5156 6.50287 51.5319 6.46158C51.5481 6.42028 51.5731 6.36272 51.5882 6.33269C51.6019 6.3039 51.6132 6.27387 51.6132 6.26761C51.6132 6.26011 51.6169 6.25385 51.622 6.25135C51.6282 6.2501 51.6507 6.21255 51.6745 6.16751C51.697 6.12246 51.7508 6.03486 51.7921 5.97354C51.8334 5.91098 51.8722 5.85466 51.8785 5.84841C51.8835 5.8409 51.906 5.81337 51.9273 5.78584C51.9486 5.75831 52.0061 5.69074 52.0549 5.63693C52.105 5.58312 52.1763 5.50929 52.2138 5.473C52.2514 5.43671 52.314 5.38165 52.3515 5.34911C52.389 5.31658 52.4328 5.28029 52.4479 5.26903C52.4629 5.25776 52.4879 5.23774 52.5042 5.22523C52.5204 5.21271 52.5492 5.18894 52.5705 5.17267C52.5905 5.15515 52.6155 5.14139 52.623 5.14139C52.6318 5.14139 52.6431 5.13388 52.6481 5.12512C52.6543 5.11636 52.6819 5.09383 52.7106 5.07506C52.7407 5.05629 52.767 5.04128 52.7707 5.04128C52.7745 5.04128 52.8107 5.01875 52.852 4.99122C52.8933 4.96369 52.9309 4.94117 52.9359 4.94117C52.9421 4.94117 52.9597 4.92991 52.9772 4.91614C52.9947 4.90238 53.0135 4.89111 53.021 4.89111ZM54.5414 11.7861C54.5264 11.8512 54.5038 11.9551 54.4901 12.0176C54.4763 12.079 54.4575 12.1803 54.4475 12.2429C54.4375 12.3042 54.4263 12.3668 54.4225 12.3805C54.4188 12.3943 54.4037 12.4819 54.39 12.5745C54.3762 12.6671 54.3574 12.831 54.3487 12.9374C54.3387 13.0438 54.3236 13.2214 54.3161 13.3316C54.3074 13.4417 54.3036 13.6044 54.3074 13.6945C54.3111 13.7833 54.3236 13.961 54.3337 14.0886C54.3449 14.2163 54.3587 14.3452 54.3662 14.3765C54.3725 14.4077 54.3862 14.4803 54.3962 14.5391C54.4062 14.598 54.4263 14.6906 54.4388 14.7456C54.4525 14.8007 54.4751 14.8845 54.4888 14.9333C54.5026 14.9809 54.5351 15.0772 54.5589 15.146C54.5839 15.2149 54.614 15.2937 54.6265 15.3212C54.6377 15.3488 54.6853 15.4476 54.7328 15.5402C54.7804 15.6328 54.8555 15.7655 54.9005 15.8343C54.9468 15.9031 55.0094 15.9932 55.0407 16.0345C55.072 16.0758 55.1521 16.1684 55.2171 16.2397C55.2822 16.3123 55.3836 16.4137 55.4424 16.465C55.5012 16.5175 55.5663 16.5726 55.5863 16.5876C55.6075 16.6026 55.6513 16.6377 55.6864 16.664C55.7202 16.6902 55.794 16.7403 55.8491 16.7766C55.9041 16.8129 55.9542 16.8467 55.9617 16.8517C55.9679 16.8579 55.9867 16.8667 56.0017 16.8704C56.018 16.8754 56.038 16.8867 56.0455 16.8955C56.0543 16.903 56.1381 16.948 56.2307 16.9943C56.3233 17.0394 56.4259 17.0894 56.4585 17.1032C56.4923 17.1182 56.5223 17.1295 56.5273 17.1295C56.5336 17.1295 56.5536 17.1382 56.5749 17.1495C56.5949 17.1595 56.6287 17.1733 56.6499 17.1795C56.67 17.1858 56.73 17.2058 56.7813 17.2233C56.8326 17.2421 56.914 17.2684 56.9628 17.2821C57.0103 17.2946 57.0954 17.3172 57.1505 17.3309C57.2055 17.3447 57.3006 17.366 57.3632 17.3785C57.4245 17.391 57.4871 17.4048 57.5009 17.4085C57.5146 17.4123 57.596 17.426 57.6823 17.436C57.7687 17.4473 57.8863 17.4611 57.9451 17.4673C58.0039 17.4736 58.1466 17.4786 58.2642 17.4786C58.3806 17.4786 58.5357 17.4736 58.6083 17.4673C58.6809 17.4611 58.8236 17.4448 58.9274 17.431C59.03 17.4173 59.1739 17.3948 59.2465 17.381C59.3191 17.3672 59.4167 17.3485 59.4655 17.3372C59.5131 17.3272 59.5844 17.3097 59.6219 17.2984C59.6595 17.2871 59.7295 17.2671 59.7783 17.2533C59.8259 17.2383 59.9085 17.2133 59.9598 17.1958C60.0111 17.1783 60.0687 17.157 60.0874 17.147C60.1075 17.137 60.1275 17.1295 60.135 17.1295C60.1412 17.1295 60.18 17.1144 60.2188 17.0969C60.2589 17.0794 60.334 17.0444 60.3853 17.0193C60.4366 16.9943 60.5379 16.9405 60.6105 16.8992C60.6831 16.8579 60.7619 16.8116 60.7857 16.7953C60.8095 16.7791 60.8408 16.7591 60.8533 16.7503C60.867 16.7428 60.8883 16.7253 60.9008 16.7128C60.9133 16.7015 60.9271 16.6915 60.9321 16.6915C60.9384 16.6902 60.9596 16.6752 60.9809 16.6564C61.0034 16.6377 61.0447 16.6026 61.0748 16.5789C61.1048 16.5551 61.1849 16.4813 61.2525 16.4162C61.32 16.3511 61.4302 16.2297 61.4965 16.1459C61.564 16.0633 61.6254 15.9845 61.6341 15.9707C61.6416 15.9582 61.6704 15.9131 61.6967 15.8718C61.723 15.8305 61.7568 15.7767 61.7705 15.753C61.7855 15.7292 61.8343 15.6341 61.8794 15.5427C61.9244 15.4526 61.962 15.375 61.962 15.3713C61.962 15.3675 61.9695 15.3463 61.9795 15.3237C61.9895 15.3025 62.012 15.2474 62.0283 15.2024C62.0458 15.1573 62.0696 15.0897 62.0809 15.0522C62.0934 15.0147 62.1134 14.9433 62.1272 14.8958C62.1409 14.847 62.1622 14.7631 62.176 14.7081C62.1885 14.653 62.211 14.5404 62.2248 14.4578C62.2398 14.3752 62.2598 14.2313 62.2698 14.1387C62.2786 14.0461 62.2898 13.8884 62.2936 13.7883C62.2973 13.6882 62.3036 13.5931 62.3061 13.5756C62.3086 13.5581 62.3061 13.4342 62.2998 13.3003C62.2936 13.1664 62.2823 12.9799 62.2736 12.8873C62.2661 12.7947 62.246 12.6195 62.2298 12.4994C62.2123 12.3793 62.1897 12.2379 62.1797 12.1866C62.1697 12.1353 62.1497 12.0389 62.1359 11.9738C62.1222 11.9088 62.1021 11.8287 62.0921 11.7949C62.0821 11.7624 62.0746 11.7273 62.0746 11.7173C62.0746 11.7073 62.0683 11.696 62.0621 11.6923C62.0546 11.6885 62.0346 11.6948 62.0145 11.7048C61.9958 11.7148 61.9495 11.7361 61.9119 11.7523C61.8744 11.7686 61.8168 11.7949 61.783 11.8099C61.7505 11.8237 61.7155 11.8362 61.7055 11.8362C61.6954 11.8362 61.6867 11.8399 61.6867 11.8449C61.6867 11.8512 61.6629 11.8625 61.6341 11.8725C61.6041 11.8812 61.5741 11.8938 61.5678 11.8988C61.5603 11.9038 61.5328 11.915 61.5052 11.9238C61.4777 11.9325 61.4489 11.9438 61.4427 11.9488C61.4352 11.9538 61.4076 11.9651 61.3801 11.9738C61.3526 11.9813 61.3125 11.9964 61.2925 12.0051C61.2712 12.0139 61.2374 12.0264 61.2174 12.0314C61.1961 12.0364 61.1736 12.0439 61.1674 12.0489C61.1599 12.0539 61.1323 12.0652 61.1048 12.0739C61.0773 12.0815 61.0372 12.0965 61.0172 12.1052C60.9959 12.114 60.9596 12.1253 60.9359 12.1303C60.9121 12.1353 60.8858 12.144 60.8795 12.149C60.872 12.154 60.8358 12.1653 60.7982 12.1741C60.7607 12.1828 60.7231 12.1941 60.7169 12.1991C60.7094 12.2041 60.6706 12.2166 60.6293 12.2254C60.588 12.2341 60.5479 12.2454 60.5417 12.2504C60.5342 12.2554 60.4929 12.2667 60.4478 12.2742C60.4028 12.2829 60.3602 12.2942 60.354 12.2992C60.3465 12.3042 60.3189 12.3117 60.2914 12.3167C60.2639 12.3217 60.1788 12.3392 60.1037 12.3568C60.0274 12.373 59.9298 12.3955 59.8847 12.4056C59.8397 12.4156 59.7583 12.4293 59.7033 12.4368C59.6482 12.4444 59.6007 12.4531 59.5969 12.4556C59.5931 12.4581 59.5206 12.4694 59.4342 12.4794C59.3479 12.4907 59.2415 12.5044 59.1965 12.5107C59.1514 12.5182 59.005 12.5307 58.8711 12.5395C58.7372 12.5482 58.4782 12.5557 58.2955 12.5557C58.1128 12.5557 57.86 12.5482 57.7324 12.5407C57.6047 12.5319 57.4358 12.5157 57.357 12.5044C57.2781 12.4944 57.1592 12.4769 57.0942 12.4656C57.0291 12.4556 56.9415 12.4418 56.9002 12.4356C56.8589 12.4293 56.7888 12.4168 56.7438 12.4056C56.6987 12.3955 56.5836 12.3705 56.4873 12.348C56.3909 12.3267 56.3008 12.3042 56.287 12.2992C56.2733 12.2929 56.2295 12.2804 56.1882 12.2717C56.1481 12.2629 56.1131 12.2516 56.1106 12.2454C56.1081 12.2404 56.0943 12.2366 56.0806 12.2366C56.0668 12.2366 55.9692 12.2078 55.8641 12.1741C55.7602 12.139 55.6564 12.1027 55.6363 12.0927C55.6151 12.0827 55.58 12.0702 55.5575 12.0652C55.535 12.0602 55.5175 12.0514 55.5175 12.0452C55.5175 12.0402 55.5074 12.0364 55.4949 12.0364C55.4837 12.0364 55.4511 12.0251 55.4236 12.0114C55.3961 11.9976 55.3673 11.9864 55.361 11.9864C55.3535 11.9864 55.326 11.9751 55.2985 11.9626C55.2709 11.9501 55.2171 11.925 55.1796 11.9075C55.142 11.8912 55.0982 11.8737 55.082 11.8687C55.067 11.865 55.0544 11.855 55.0544 11.8487C55.0544 11.8412 55.0469 11.8362 55.0382 11.8362C55.0307 11.8362 54.9756 11.8124 54.9168 11.7824C54.858 11.7523 54.7654 11.7023 54.7103 11.6698C54.6553 11.6372 54.604 11.6109 54.5952 11.6109C54.5877 11.6109 54.5789 11.6235 54.5752 11.6385C54.5714 11.6547 54.5564 11.7211 54.5414 11.7861ZM60.2914 18.7938C60.2776 18.8 60.2326 18.8113 60.1913 18.8201C60.15 18.8288 60.11 18.8388 60.1037 18.8438C60.0962 18.8488 60.0687 18.8601 60.0411 18.8689C60.0136 18.8764 59.9736 18.8914 59.9535 18.9001C59.9323 18.9089 59.901 18.9202 59.881 18.9239C59.8622 18.9277 59.8472 18.9364 59.8472 18.9439C59.8472 18.9502 59.8409 18.9565 59.8347 18.9565C59.8272 18.9565 59.7896 18.9715 59.7496 18.989C59.7108 19.0078 59.6219 19.0541 59.5531 19.0941C59.4843 19.1329 59.3804 19.188 59.3216 19.2155C59.2628 19.2443 59.1902 19.2781 59.1589 19.2918C59.1276 19.3056 59.0738 19.3281 59.04 19.3419C59.005 19.3544 58.9462 19.3782 58.9087 19.3919C58.8711 19.4069 58.8173 19.4245 58.7898 19.4307C58.7622 19.4382 58.7059 19.452 58.6646 19.4633C58.6233 19.4733 58.572 19.4883 58.552 19.4945C58.5307 19.5008 58.4494 19.5183 58.3706 19.5321C58.2917 19.5458 58.1791 19.5621 58.1203 19.5684C58.0615 19.5759 57.9213 19.5846 57.8074 19.5884C57.6923 19.5934 57.4846 19.5909 57.3382 19.5834C57.193 19.5759 57.0416 19.5634 57.0003 19.5559C56.959 19.5496 56.8889 19.5383 56.8439 19.5308C56.7988 19.5246 56.7313 19.5108 56.6937 19.4995C56.6562 19.4883 56.5849 19.4683 56.5373 19.4545C56.4885 19.4407 56.4184 19.4195 56.3809 19.4069C56.3434 19.3957 56.272 19.3732 56.2245 19.3594C56.1757 19.3444 56.0893 19.3194 56.0305 19.3043C55.9417 19.2806 55.8929 19.2756 55.7364 19.2756C55.555 19.2768 55.5462 19.2781 55.4737 19.3131C55.4286 19.3344 55.366 19.3819 55.3147 19.4307C55.2584 19.487 55.2209 19.5371 55.1984 19.5884C55.1796 19.6297 55.1608 19.6948 55.1571 19.7323C55.1533 19.7698 55.1583 19.8287 55.1658 19.8637C55.1746 19.8975 55.1984 19.96 55.2196 20.0013C55.2409 20.0426 55.2809 20.1077 55.3085 20.1453C55.3373 20.1828 55.3998 20.2529 55.4486 20.2992C55.4962 20.3467 55.59 20.4256 55.6551 20.4756C55.7202 20.5257 55.8303 20.6032 55.8991 20.6483C55.9679 20.6933 56.0443 20.7396 56.0681 20.7522C56.0918 20.7647 56.1144 20.7784 56.1181 20.7822C56.1219 20.786 56.1494 20.8035 56.1807 20.8197C56.212 20.836 56.3509 20.9061 56.4885 20.9762C56.6274 21.0462 56.7676 21.1138 56.8014 21.1276C56.8339 21.1413 56.8814 21.1626 56.9052 21.1751C56.9302 21.1864 56.9553 21.1964 56.9628 21.1964C56.969 21.1964 56.9953 21.2064 57.0191 21.2189C57.0429 21.2314 57.0754 21.2452 57.0904 21.2502C57.1167 21.2577 57.1205 21.254 57.1317 21.1864C57.1392 21.1476 57.1505 21.095 57.1567 21.0713C57.163 21.0475 57.1755 20.9912 57.1818 20.9461C57.1893 20.9011 57.2043 20.846 57.2143 20.8235C57.2231 20.8022 57.2468 20.7734 57.2656 20.7622C57.2869 20.7484 57.3357 20.7384 57.3882 20.7359C57.4358 20.7321 57.5684 20.7371 57.6823 20.7447C57.8325 20.7547 57.9126 20.7659 57.9776 20.7859C58.0264 20.8022 58.074 20.821 58.084 20.8285C58.094 20.836 58.1128 20.846 58.1265 20.8498C58.1403 20.8535 58.1866 20.8898 58.2292 20.9299C58.273 20.9699 58.3193 21.025 58.3343 21.0525C58.348 21.08 58.3706 21.1338 58.3843 21.1714C58.3968 21.2089 58.4119 21.2815 58.4169 21.3315L58.4269 21.4216H58.5833C58.5833 21.2227 58.5896 21.1401 58.5971 21.1088C58.6033 21.0775 58.6196 21.03 58.6321 21.0024C58.6446 20.9749 58.6746 20.9324 58.6972 20.9073C58.7209 20.8823 58.7622 20.851 58.7898 20.8373C58.8173 20.8235 58.8786 20.801 58.9274 20.7859C58.975 20.7722 59.0488 20.7559 59.0901 20.7522C59.1314 20.7472 59.199 20.7359 59.2403 20.7259C59.2816 20.7159 59.3654 20.7084 59.428 20.7084C59.5106 20.7084 59.5606 20.7146 59.6157 20.7334C59.657 20.7484 59.7108 20.7722 59.7346 20.7872C59.7583 20.8022 59.7971 20.8335 59.8196 20.8585C59.8434 20.8823 59.8735 20.9249 59.8897 20.9524C59.9047 20.9799 59.9273 21.0362 59.9385 21.0775C59.9498 21.1188 59.9598 21.1664 59.9598 21.1839V21.2152C60.11 21.2027 60.185 21.1889 60.2226 21.1776C60.2601 21.1664 60.3365 21.1426 60.3915 21.1251C60.4466 21.1076 60.5417 21.0688 60.6042 21.0375C60.6656 21.0074 60.7331 20.9724 60.7544 20.9611C60.7744 20.9499 60.8257 20.9173 60.867 20.8898C60.9083 20.8623 60.9471 20.8335 60.9546 20.826C60.9609 20.8185 60.9734 20.8097 60.9822 20.8072C60.9897 20.8047 61.0485 20.7547 61.1123 20.6959C61.1761 20.637 61.2587 20.5494 61.2975 20.5019C61.3363 20.4531 61.3876 20.383 61.4126 20.3455C61.4377 20.3079 61.4777 20.2328 61.5027 20.179C61.529 20.1265 61.564 20.0389 61.5816 19.9851C61.6053 19.9125 61.6154 19.8524 61.6204 19.7386C61.6254 19.6497 61.6216 19.5546 61.6128 19.5033C61.6053 19.457 61.5941 19.4094 61.5878 19.3969C61.5816 19.3857 61.5628 19.3469 61.5478 19.3131C61.5328 19.2781 61.499 19.2192 61.4727 19.1817C61.4477 19.1442 61.4089 19.0941 61.3876 19.0716C61.3663 19.0503 61.3188 19.0078 61.2825 18.9777C61.2474 18.9489 61.1761 18.9001 61.1261 18.8714C61.0773 18.8426 61.0285 18.8188 61.0197 18.8188C61.0122 18.8188 60.9872 18.81 60.9671 18.8C60.9459 18.7888 60.8846 18.775 60.8295 18.7687C60.7744 18.7612 60.6818 18.7575 60.623 18.7575C60.5642 18.7587 60.4716 18.765 60.4165 18.77C60.3615 18.7763 60.3052 18.7863 60.2914 18.7938ZM57.4633 22.5792C57.4145 22.5904 57.3557 22.6042 57.3319 22.6104C57.3082 22.6167 57.2568 22.6292 57.2193 22.6405C57.1818 22.6505 57.1355 22.668 57.1179 22.678C57.1004 22.6893 57.0767 22.698 57.0654 22.698C57.0529 22.698 57.0291 22.7055 57.0091 22.7156C56.9903 22.7256 56.939 22.7518 56.894 22.7731C56.8489 22.7944 56.7788 22.8332 56.7363 22.8582C56.6937 22.8832 56.6099 22.9446 56.5486 22.9934C56.4873 23.0434 56.4009 23.1222 56.3559 23.1685C56.3108 23.2161 56.2508 23.2824 56.2232 23.3175C56.1944 23.3512 56.1419 23.4251 56.1068 23.4801C56.0706 23.5352 56.0067 23.6503 55.9654 23.7367C55.9241 23.823 55.8854 23.9044 55.8803 23.9181C55.8741 23.9319 55.8628 23.9657 55.8541 23.9932C55.8466 24.0207 55.8353 24.0483 55.8303 24.0558C55.8253 24.062 55.8165 24.0883 55.8115 24.1121C55.8065 24.1359 55.7953 24.1721 55.7865 24.1934C55.7777 24.2134 55.7565 24.296 55.7377 24.3749C55.7202 24.4537 55.6951 24.5801 55.6814 24.6564C55.6676 24.7315 55.6476 24.8729 55.6351 24.9693C55.6238 25.0656 55.6113 25.1895 55.6076 25.2446C55.6025 25.3159 55.6063 25.3572 55.6188 25.3872C55.6288 25.411 55.6513 25.4435 55.6701 25.4598L55.7052 25.4886L61.0422 25.4823C61.091 25.4398 61.1123 25.406 61.1211 25.3797C61.1361 25.3384 61.1348 25.3134 61.1136 25.182C61.0998 25.0994 61.076 24.9893 61.0622 24.938C61.0485 24.8867 61.0285 24.8103 61.0172 24.769C61.0059 24.7277 60.9897 24.6764 60.9797 24.6564C60.9709 24.6351 60.9584 24.6014 60.9534 24.5813C60.9484 24.5601 60.9371 24.5325 60.9284 24.5188C60.9208 24.505 60.9096 24.48 60.9046 24.4625C60.8996 24.4449 60.8846 24.4061 60.8708 24.3749C60.857 24.3436 60.8182 24.2647 60.7869 24.1997C60.7544 24.1346 60.7069 24.0445 60.6806 23.9995C60.6556 23.9544 60.6193 23.8943 60.6005 23.8656C60.5817 23.8368 60.5504 23.788 60.5292 23.7592C60.5091 23.7292 60.4578 23.6628 60.4165 23.6115C60.3752 23.5602 60.3252 23.4989 60.3039 23.4751C60.2839 23.4514 60.2251 23.3925 60.1738 23.3437C60.1225 23.2949 60.0724 23.2461 60.0612 23.2361C60.0499 23.2261 60.0124 23.1948 59.9786 23.1673C59.9448 23.1398 59.9047 23.1085 59.8897 23.0985C59.8747 23.0885 59.8209 23.0522 59.7708 23.0171C59.7195 22.9833 59.6607 22.9458 59.6407 22.9333C59.6194 22.9208 59.5281 22.8745 59.4367 22.8294C59.3466 22.7844 59.264 22.7481 59.2553 22.7481C59.2478 22.7481 59.2227 22.7393 59.2027 22.7281C59.1814 22.7181 59.1427 22.7043 59.1151 22.6968C59.0876 22.6905 59.0538 22.6793 59.04 22.673C59.0263 22.6655 58.9787 22.6517 58.9337 22.6405C58.8886 22.6292 58.7985 22.6092 58.7335 22.5967C58.6684 22.5829 58.5808 22.5666 58.5395 22.5604C58.4982 22.5529 58.3067 22.5454 58.114 22.5429C57.9213 22.5391 57.7161 22.5416 57.6573 22.5479C57.5985 22.5541 57.5109 22.5691 57.4633 22.5792ZM59.1126 12.6996C59.1214 12.6996 59.1752 12.7259 59.234 12.7572C59.2928 12.7897 59.3717 12.836 59.4092 12.8598C59.4467 12.8848 59.5093 12.9311 59.5468 12.9624C59.5844 12.9937 59.652 13.055 59.697 13.1001C59.7421 13.1451 59.7996 13.2064 59.8246 13.2377C59.8497 13.269 59.891 13.3253 59.916 13.3629C59.9423 13.4004 59.9898 13.4817 60.0236 13.5443C60.0562 13.6056 60.1037 13.7182 60.1287 13.7946C60.1525 13.8697 60.1825 13.986 60.1938 14.0511C60.2063 14.1224 60.2138 14.2351 60.2138 14.3327C60.2138 14.429 60.2051 14.5466 60.1926 14.6205C60.18 14.6893 60.1525 14.8019 60.13 14.8707C60.1062 14.9396 60.0624 15.0459 60.0324 15.1085C60.0011 15.1698 59.9548 15.2524 59.9285 15.29C59.9022 15.3275 59.8484 15.3976 59.8096 15.4464C59.7696 15.4939 59.697 15.5715 59.6457 15.6191C59.5944 15.6654 59.5443 15.7104 59.5343 15.7192C59.5243 15.7267 59.4968 15.7492 59.4718 15.7667C59.448 15.7842 59.3992 15.8143 59.3654 15.8343C59.3304 15.8543 59.3003 15.8743 59.2966 15.8781C59.2928 15.8831 59.2365 15.9119 59.1714 15.9432C59.1064 15.9745 59.0163 16.012 58.9712 16.0258C58.9262 16.0395 58.8586 16.0608 58.8211 16.0721C58.7835 16.0833 58.6959 16.1021 58.6271 16.1134C58.5508 16.1259 58.4281 16.1346 58.3143 16.1346C58.1991 16.1346 58.0765 16.1271 57.9952 16.1134C57.9226 16.1021 57.8325 16.0833 57.7949 16.0721C57.7574 16.0608 57.6898 16.0408 57.6448 16.0258C57.5997 16.012 57.5096 15.9745 57.4446 15.9432C57.3795 15.9119 57.3244 15.8819 57.3219 15.8756C57.3207 15.8706 57.3132 15.8656 57.3069 15.8656C57.2994 15.8656 57.2506 15.8368 57.1968 15.8005C57.1442 15.7655 57.0929 15.7304 57.0842 15.7229C57.0741 15.7154 57.0216 15.6666 56.9665 15.6153C56.9115 15.564 56.8289 15.4739 56.7826 15.4151C56.7363 15.3563 56.6712 15.2649 56.6399 15.2111C56.6074 15.1586 56.5811 15.1123 56.5811 15.1085C56.5811 15.1048 56.5661 15.0697 56.5486 15.0297C56.5311 14.9909 56.5085 14.9408 56.4998 14.9208C56.491 14.8995 56.4785 14.8607 56.4747 14.8332C56.4697 14.8057 56.461 14.7769 56.456 14.7706C56.4497 14.7631 56.4397 14.7106 56.4309 14.6518C56.4234 14.5929 56.4109 14.5216 56.4047 14.4916C56.3984 14.4628 56.3934 14.3927 56.3934 14.3352C56.3934 14.2789 56.3984 14.2013 56.4059 14.1637C56.4122 14.1262 56.4259 14.0524 56.4347 14.001C56.4447 13.9497 56.4622 13.8734 56.4735 13.8321C56.4848 13.7908 56.4998 13.7508 56.5073 13.7445C56.5135 13.737 56.5185 13.7232 56.5185 13.7132C56.5185 13.7032 56.5411 13.6469 56.5698 13.5881C56.5974 13.5293 56.6587 13.4254 56.7037 13.3566C56.7551 13.2815 56.8401 13.1802 56.919 13.1001C56.9916 13.0275 57.1004 12.9349 57.1605 12.8936C57.2206 12.8523 57.2944 12.8047 57.3257 12.7872C57.3707 12.7622 57.3845 12.7584 57.397 12.7722C57.4108 12.7847 57.4095 12.796 57.3958 12.8285C57.387 12.8498 57.377 12.9274 57.3732 13C57.367 13.1113 57.3707 13.1476 57.3945 13.2315C57.4095 13.2865 57.4408 13.3679 57.4646 13.4129C57.4871 13.458 57.5359 13.528 57.5722 13.5681C57.6085 13.6094 57.6698 13.6657 57.7073 13.6932C57.7449 13.722 57.8012 13.757 57.8325 13.772C57.8638 13.7871 57.9201 13.8108 57.9576 13.8259C57.9952 13.8396 58.0515 13.8534 58.0827 13.8571C58.114 13.8609 58.1641 13.8659 58.1954 13.8697C58.2267 13.8722 58.3055 13.8697 58.3706 13.8634C58.4356 13.8559 58.5095 13.8434 58.5332 13.8334C58.557 13.8246 58.6021 13.8058 58.6334 13.7933C58.6634 13.7796 58.7197 13.7495 58.7585 13.7245C58.796 13.6995 58.8536 13.6544 58.8849 13.6244C58.9174 13.5944 58.965 13.538 58.9925 13.5005C59.0188 13.463 59.0526 13.4029 59.0676 13.3691C59.0826 13.3341 59.1051 13.2753 59.1176 13.2377C59.1326 13.1889 59.1389 13.1301 59.1389 13.0375C59.1389 12.9386 59.1314 12.8836 59.1114 12.8148C59.0964 12.766 59.0863 12.7184 59.0901 12.7121C59.0951 12.7046 59.1039 12.6996 59.1126 12.6996Z" fill="#959595"/>
<path d="M1.0094 27V4.22374H7.94581L9.86108 18.1095L11.7634 4.22374H18.7645V27H14.5975V10.5907L11.9834 27H7.89404L5.12466 10.5907V27H1.0094ZM20.5763 27V4.22374H24.9762V27H20.5763ZM26.788 27V4.22374H31.4726L33.5691 15.1331V4.22374H37.9691V27H33.5173L31.2397 15.6119V27H26.788ZM39.7808 27V4.22374H44.1808V27H39.7808ZM76.2746 27.2071C74.4542 27.2071 73.0609 26.6592 72.0946 25.5635C71.137 24.4592 70.6582 22.8675 70.6582 20.7883V9.96957C70.6582 8.01978 71.1327 6.54019 72.0817 5.53079C73.0393 4.52139 74.437 4.01668 76.2746 4.01668C78.1122 4.01668 79.5055 4.52139 80.4545 5.53079C81.4122 6.54019 81.891 8.01978 81.891 9.96957V20.7883C81.891 22.8675 81.4079 24.4592 80.4416 25.5635C79.484 26.6592 78.095 27.2071 76.2746 27.2071ZM76.3134 23.0142C77.0036 23.0142 77.3487 22.3455 77.3487 21.0083V9.89192C77.3487 8.77037 77.0122 8.20959 76.3393 8.20959C75.5801 8.20959 75.2005 8.78331 75.2005 9.93075V21.0342C75.2005 21.7416 75.2868 22.2506 75.4593 22.5612C75.6318 22.8632 75.9166 23.0142 76.3134 23.0142ZM83.7286 27V4.22374H88.4133L90.5097 15.1331V4.22374H94.9097V27H90.458L88.1804 15.6119V27H83.7286ZM102.338 27.2071C100.259 27.2071 98.7575 26.6894 97.8344 25.6541C96.9199 24.6188 96.4626 22.971 96.4626 20.7106V18.4848H100.966V21.3318C100.966 21.8581 101.044 22.2722 101.199 22.5742C101.363 22.8675 101.643 23.0142 102.04 23.0142C102.454 23.0142 102.739 22.8934 102.894 22.6518C103.058 22.4102 103.14 22.0134 103.14 21.4612C103.14 20.7624 103.071 20.1801 102.933 19.7142C102.795 19.2397 102.554 18.7911 102.208 18.3683C101.872 17.9369 101.402 17.4366 100.798 16.8672L98.7532 14.926C97.2262 13.4852 96.4626 11.8374 96.4626 9.98251C96.4626 8.04135 96.9113 6.56176 97.8085 5.54373C98.7144 4.5257 100.021 4.01668 101.73 4.01668C103.817 4.01668 105.297 4.57315 106.168 5.68608C107.048 6.79901 107.488 8.48998 107.488 10.759H102.856V9.19311C102.856 8.88252 102.765 8.64096 102.584 8.46841C102.411 8.29586 102.174 8.20959 101.872 8.20959C101.51 8.20959 101.242 8.31312 101.07 8.52017C100.906 8.7186 100.824 8.97742 100.824 9.29664C100.824 9.61585 100.91 9.96094 101.083 10.3319C101.255 10.7029 101.596 11.13 102.105 11.6131L104.732 14.1366C105.258 14.637 105.741 15.1676 106.181 15.7283C106.621 16.2805 106.975 16.9275 107.243 17.6695C107.51 18.4028 107.644 19.3001 107.644 20.3612C107.644 22.5008 107.247 24.1788 106.453 25.3953C105.668 26.6031 104.296 27.2071 102.338 27.2071ZM111.125 27V8.59782H108.42V4.22374H118.385V8.59782H115.68V27H111.125ZM119.653 27V4.22374H128.764V8.6237H124.286V13.0625H128.582V17.346H124.286V22.5612H129.061V27H119.653ZM130.575 27V4.22374H137.563C138.728 4.22374 139.608 4.49119 140.203 5.02609C140.799 5.55236 141.196 6.29431 141.394 7.25195C141.601 8.20096 141.705 9.3182 141.705 10.6037C141.705 11.846 141.545 12.8382 141.226 13.5801C140.915 14.3221 140.324 14.8354 139.453 15.1201C140.169 15.2668 140.669 15.6248 140.954 16.1942C141.247 16.755 141.394 17.484 141.394 18.3813V27H136.903V18.0836C136.903 17.4193 136.765 17.0095 136.489 16.8542C136.222 16.6903 135.786 16.6083 135.182 16.6083V27H130.575ZM135.208 12.6613H136.308C136.938 12.6613 137.253 11.9754 137.253 10.6037C137.253 9.71506 137.184 9.13272 137.046 8.85664C136.908 8.58056 136.649 8.44253 136.269 8.44253H135.208V12.6613ZM148.615 27.2071C146.536 27.2071 145.035 26.6894 144.112 25.6541C143.197 24.6188 142.74 22.971 142.74 20.7106V18.4848H147.243V21.3318C147.243 21.8581 147.321 22.2722 147.476 22.5742C147.64 22.8675 147.921 23.0142 148.317 23.0142C148.732 23.0142 149.016 22.8934 149.172 22.6518C149.335 22.4102 149.417 22.0134 149.417 21.4612C149.417 20.7624 149.348 20.1801 149.21 19.7142C149.072 19.2397 148.831 18.7911 148.486 18.3683C148.149 17.9369 147.679 17.4366 147.075 16.8672L145.03 14.926C143.503 13.4852 142.74 11.8374 142.74 9.98251C142.74 8.04135 143.188 6.56176 144.086 5.54373C144.992 4.5257 146.299 4.01668 148.007 4.01668C150.095 4.01668 151.574 4.57315 152.446 5.68608C153.326 6.79901 153.766 8.48998 153.766 10.759H149.133V9.19311C149.133 8.88252 149.042 8.64096 148.861 8.46841C148.688 8.29586 148.451 8.20959 148.149 8.20959C147.787 8.20959 147.519 8.31312 147.347 8.52017C147.183 8.7186 147.101 8.97742 147.101 9.29664C147.101 9.61585 147.187 9.96094 147.36 10.3319C147.532 10.7029 147.873 11.13 148.382 11.6131L151.009 14.1366C151.535 14.637 152.019 15.1676 152.459 15.7283C152.899 16.2805 153.252 16.9275 153.52 17.6695C153.787 18.4028 153.921 19.3001 153.921 20.3612C153.921 22.5008 153.524 24.1788 152.73 25.3953C151.945 26.6031 150.573 27.2071 148.615 27.2071Z" fill="#959595"/>
</svg>
