<svg width="183" height="51" viewBox="0 0 183 51" fill="none" xmlns="http://www.w3.org/2000/svg">
<path fill-rule="evenodd" clip-rule="evenodd" d="M47.895 0.000709193C48.3903 -0.00863474 49.2593 0.0754606 49.904 0.187588C50.5394 0.290371 51.4551 0.505281 51.941 0.664128C52.4268 0.822975 53.1183 1.08461 53.4827 1.2528C53.8378 1.41164 54.4918 1.77606 54.931 2.05637C55.3702 2.33669 55.9962 2.79454 56.3326 3.07486C56.669 3.35518 57.2016 3.85975 57.5099 4.19613C57.8276 4.53252 58.3322 5.13987 58.6219 5.551C58.9115 5.96214 59.36 6.70031 59.603 7.18619C59.8459 7.67208 60.173 8.44762 60.3318 8.91482C60.4907 9.37267 60.6869 10.1108 60.771 10.55C60.8551 10.9892 60.9485 11.8675 60.9765 12.5122C61.0046 13.1663 60.9859 14.082 60.9205 14.5866C60.8551 15.1659 60.0702 18.4923 58.7527 23.6969C57.3511 29.2939 56.5101 32.4615 56.099 33.6762C55.772 34.648 55.2861 35.9562 55.0245 36.5729C54.7535 37.1896 54.2396 38.2828 53.8658 39.0023C53.5014 39.7218 52.838 40.8524 52.3988 41.5251C51.9596 42.1886 51.2589 43.1603 50.8477 43.6742C50.4366 44.1882 49.6984 44.9917 49.2219 45.4683C48.736 45.9448 48.0726 46.5428 47.7362 46.8138C47.3998 47.0754 46.8952 47.4585 46.6149 47.6454C46.3346 47.8416 45.6992 48.206 45.2133 48.4677C44.7274 48.7293 43.9426 49.0937 43.4847 49.2713C43.0175 49.4488 42.3261 49.6824 41.943 49.7852C41.5598 49.888 40.7469 50.0561 40.1396 50.1683C39.364 50.2991 38.6352 50.3552 37.6167 50.3552C36.5515 50.3552 35.8601 50.2991 34.8416 50.1309C34.0941 50.0001 33.0662 49.7945 32.5523 49.6637C32.0384 49.5329 31.0573 49.2339 30.3752 49.0003C29.7024 48.7667 28.5624 48.3275 27.8523 48.0098C27.1515 47.7015 26.0489 47.1689 25.4042 46.8325C24.7595 46.4961 23.769 45.9448 23.2084 45.6084C22.6384 45.2721 21.6947 44.6834 21.106 44.3003C20.5173 43.9172 19.4801 43.2164 18.8167 42.7398C18.144 42.2633 16.9666 41.385 16.2004 40.7776C15.4249 40.1703 14.4998 39.4228 14.1448 39.1144C13.7803 38.8061 12.8366 37.9558 12.0424 37.2269C11.2481 36.4888 10.0895 35.3768 9.4728 34.7414C8.8561 34.1061 7.90302 33.0782 7.37041 32.4615C6.82847 31.8448 6.06226 30.9385 5.67916 30.4526C5.28672 29.9667 4.57658 29.0136 4.10938 28.3502C3.63284 27.6774 2.91336 26.5842 2.51157 25.9208C2.10978 25.248 1.50243 24.1361 1.16604 23.4446C0.829663 22.7532 0.446561 21.8655 0.315746 21.4824C0.1569 21.0339 0.0541163 20.4733 0.0167406 19.9407C-0.0206351 19.4174 0.00739668 18.8661 0.0728042 18.4923C0.138212 18.156 0.334434 17.5673 0.521313 17.1842C0.698847 16.8011 1.04457 16.2124 1.29686 15.876C1.5398 15.5397 2.03503 14.9977 2.38075 14.6707C2.73582 14.3343 3.34318 13.8297 3.72628 13.5401C4.10938 13.2597 4.78215 12.8112 5.22131 12.5403C5.66047 12.2786 6.55749 11.7927 7.23025 11.4564C7.89367 11.1293 8.90282 10.6528 9.4728 10.4098C10.0334 10.1669 11.2388 9.69971 12.1358 9.37267C13.0328 9.03629 14.5933 8.51303 15.5931 8.20468C16.5929 7.89633 18.4617 7.35438 19.7511 6.99931C21.0312 6.65359 23.3672 6.03689 24.937 5.64444C26.5068 5.252 31.0199 4.07466 34.9817 3.02814C38.9342 1.98162 42.8493 0.95379 43.6716 0.729536C44.4938 0.514625 45.5871 0.262339 46.101 0.178244C46.6149 0.0848046 47.4278 0.0100531 47.895 0.000709193ZM39.2332 12.9514C34.7388 14.11 30.9545 15.1098 30.8237 15.1753C30.6929 15.2407 30.4499 15.4369 30.2724 15.6051C30.1042 15.7826 29.8706 16.091 29.7772 16.2965C29.6744 16.5021 29.5622 16.8572 29.5436 17.0908C29.5062 17.3524 29.5436 17.6888 29.637 17.9784C29.7211 18.2307 29.936 18.6138 30.1042 18.8194C30.2724 19.025 30.5994 19.2866 30.833 19.3987C31.104 19.5389 32.5149 19.8659 34.935 20.3518C36.9626 20.7536 38.7473 21.1554 38.9062 21.2301C39.0557 21.3049 39.3453 21.5385 39.5322 21.7347C39.7191 21.9309 39.9434 22.2393 40.0181 22.4168C40.0929 22.5943 40.476 24.3603 40.8684 26.3413C41.2608 28.3222 41.6626 30.1069 41.7467 30.3124C41.8402 30.518 42.0551 30.8263 42.2326 31.0039C42.4101 31.1721 42.7185 31.3963 42.9241 31.4898C43.1577 31.5925 43.5127 31.6673 43.8585 31.6673C44.2883 31.6673 44.5312 31.6112 44.9237 31.415C45.204 31.2655 45.5404 31.0226 45.6618 30.8731C45.7926 30.7142 45.9702 30.4245 46.0636 30.219C46.1477 30.0134 47.1569 26.1824 48.2875 21.716C49.4742 17.0254 50.3525 13.4093 50.3525 13.1663C50.3525 12.9327 50.2964 12.5776 50.2404 12.3721C50.1656 12.1478 49.932 11.8021 49.6517 11.5124C49.2966 11.148 49.063 10.9985 48.6706 10.8864C48.3903 10.8023 48.0726 10.7369 47.9698 10.7462C47.867 10.7556 47.6988 10.7743 47.596 10.8023C47.4932 10.821 43.7276 11.7928 39.2332 12.9514ZM118.096 4.66333H124.17L124.123 36.6663H118.143L118.096 4.66333ZM161.312 15.5397C162.526 15.5677 162.816 15.6051 163.507 15.8293C163.947 15.9695 164.582 16.2311 164.937 16.418C165.283 16.6142 165.563 16.8011 165.563 16.8572C165.563 16.9039 165.031 18.1279 164.386 19.5669C163.741 21.0059 163.19 22.2112 163.152 22.258C163.115 22.2953 162.835 22.1832 162.526 21.9963C162.218 21.8188 161.76 21.5945 161.499 21.5198C161.153 21.3983 160.788 21.3703 160.05 21.4077C159.275 21.4357 158.985 21.4918 158.677 21.6506C158.452 21.7627 158.125 21.9963 157.939 22.1552C157.752 22.3234 157.481 22.6504 157.331 22.884C157.172 23.1176 156.957 23.5754 156.845 23.9118C156.649 24.5098 156.64 24.6593 156.546 36.6663H150.566L150.519 16.0629H153.463C155.079 16.0629 156.434 16.0629 156.481 16.0629C156.518 16.0629 156.556 16.2685 156.574 16.5301C156.584 16.7824 156.612 16.9973 156.64 16.9973C156.668 16.9973 156.883 16.8478 157.135 16.6516C157.378 16.4647 157.826 16.1937 158.135 16.0536C158.443 15.9041 158.966 15.7172 159.303 15.6424C159.742 15.549 160.312 15.5116 161.312 15.5397ZM105.248 15.6424C106.267 15.6611 106.762 15.7265 107.491 15.9134C108.07 16.0629 108.817 16.3432 109.453 16.6703C110.042 16.9693 110.817 17.4552 111.275 17.8289C111.714 18.1747 112.34 18.782 112.676 19.1745C113.013 19.5762 113.508 20.2584 113.779 20.7162C114.05 21.1647 114.396 21.8468 114.545 22.2299C114.695 22.613 114.9 23.3699 115.012 23.9118C115.19 24.7528 115.209 25.1079 115.171 26.4347C115.143 27.6774 115.087 28.1446 114.9 28.8641C114.77 29.35 114.499 30.1069 114.293 30.546C114.097 30.9852 113.714 31.6579 113.452 32.041C113.19 32.4242 112.695 33.0502 112.34 33.4333C111.985 33.8071 111.359 34.377 110.948 34.6854C110.537 34.9937 109.883 35.3955 109.5 35.5917C109.116 35.788 108.462 36.0496 108.051 36.1804C107.64 36.3112 106.949 36.4701 106.51 36.5261C106.042 36.6009 105.257 36.6289 104.594 36.6009C103.884 36.5635 103.183 36.4701 102.678 36.3486C102.239 36.2271 101.482 35.9468 100.997 35.7039C100.511 35.4703 100.081 35.2647 100.044 35.246C99.9968 35.2273 99.9688 37.5727 99.9688 45.6832H94.1755V16.0629H99.9688L99.9594 16.4927C99.9594 16.7263 99.9874 16.9039 100.034 16.8852C100.072 16.8665 100.361 16.7263 100.67 16.5675C100.978 16.3993 101.585 16.1564 102.024 16.0256C102.464 15.8854 103.071 15.7359 103.379 15.6892C103.688 15.6424 104.529 15.6238 105.248 15.6424ZM102.211 21.6786C101.623 21.9589 101.268 22.2112 100.856 22.6411C100.548 22.9587 100.165 23.4633 99.9968 23.7717C99.8379 24.08 99.6324 24.6033 99.5576 24.9397C99.4735 25.276 99.4081 25.7993 99.4081 26.1077C99.4081 26.416 99.4735 26.9393 99.5576 27.2756C99.6324 27.612 99.8286 28.1353 99.9968 28.4436C100.156 28.752 100.567 29.2846 100.903 29.621C101.324 30.0508 101.725 30.3405 102.211 30.5741C102.65 30.789 103.174 30.9572 103.613 31.0319C104.155 31.116 104.491 31.116 105.061 31.0319C105.566 30.9572 106.042 30.8076 106.51 30.5741C106.995 30.3405 107.397 30.0508 107.818 29.621C108.154 29.2846 108.565 28.752 108.724 28.4436C108.892 28.1353 109.088 27.612 109.163 27.2756C109.247 26.9393 109.313 26.416 109.313 26.1077C109.313 25.7993 109.247 25.2947 109.173 24.9864C109.088 24.678 108.902 24.1735 108.752 23.8651C108.603 23.5568 108.294 23.0896 108.07 22.8373C107.846 22.5756 107.416 22.2019 107.108 21.9963C106.809 21.8001 106.285 21.5385 105.949 21.4263C105.612 21.3142 105.071 21.2021 104.734 21.1741C104.398 21.146 103.875 21.1647 103.566 21.2114C103.248 21.2582 102.66 21.4637 102.211 21.6786ZM137.578 15.6424C138.298 15.6611 139.176 15.7359 139.54 15.82C139.905 15.8947 140.428 16.0442 140.708 16.1377C140.989 16.2405 141.54 16.4741 141.923 16.6703C142.306 16.8572 142.895 17.2029 143.231 17.4178C143.568 17.6327 144.166 18.1466 144.577 18.5484C144.978 18.9595 145.52 19.6043 145.773 19.9874C146.034 20.3705 146.399 21.0246 146.595 21.4357C146.791 21.8468 147.062 22.5383 147.184 22.9774C147.314 23.4166 147.464 24.1081 147.529 24.5192C147.585 24.9397 147.623 26.0236 147.576 28.724L133.411 28.8174L133.682 29.2379C133.831 29.4715 134.177 29.8639 134.457 30.1255C134.738 30.3778 135.279 30.7422 135.663 30.9385C136.046 31.1253 136.588 31.3216 136.859 31.3776C137.12 31.4337 137.672 31.4804 138.073 31.4804C138.466 31.4804 139.045 31.4337 139.353 31.387C139.662 31.3309 140.232 31.1814 140.615 31.0599C140.998 30.9291 141.587 30.6581 141.923 30.4432C142.259 30.2283 142.727 29.8546 142.979 29.621C143.222 29.3874 143.437 29.2098 143.455 29.2379C143.474 29.2659 144.166 30.3031 144.997 31.5458C145.819 32.7979 146.502 33.8538 146.502 33.9098C146.502 33.9566 146.259 34.1902 145.969 34.4144C145.67 34.6387 145.137 35.0031 144.773 35.218C144.418 35.4422 143.745 35.7973 143.278 36.0122C142.82 36.2271 142.166 36.4981 141.83 36.6102C141.493 36.713 140.905 36.8719 140.521 36.9466C140.138 37.0214 139.279 37.1148 138.606 37.1428C137.69 37.1896 137.12 37.1615 136.317 37.0494C135.728 36.956 134.868 36.7597 134.401 36.6102C133.943 36.4514 133.205 36.143 132.766 35.9094C132.327 35.6758 131.682 35.2741 131.318 35.0031C130.963 34.7321 130.402 34.2462 130.075 33.9098C129.748 33.5735 129.271 33.0035 129.01 32.6484C128.757 32.284 128.374 31.6579 128.169 31.2468C127.954 30.8357 127.692 30.2003 127.561 29.8452C127.44 29.4808 127.281 28.8921 127.206 28.5371C127.132 28.1727 127.047 27.4438 127.01 26.9019C126.973 26.3226 127.001 25.5564 127.057 25.0331C127.122 24.5472 127.253 23.809 127.365 23.3979C127.468 22.9868 127.711 22.2953 127.898 21.8562C128.085 21.417 128.477 20.6975 128.776 20.2397C129.066 19.7912 129.654 19.0623 130.084 18.6232C130.514 18.1747 131.196 17.586 131.645 17.2963C132.084 17.0067 132.794 16.6142 133.233 16.4273C133.672 16.2405 134.382 15.9975 134.822 15.8947C135.261 15.7826 135.765 15.6798 135.943 15.6518C136.12 15.6331 136.859 15.6238 137.578 15.6424ZM135.672 21.7253C135.401 21.8749 134.999 22.1832 134.784 22.4168C134.56 22.6504 134.27 23.0615 134.139 23.3232C133.999 23.5941 133.887 23.8558 133.887 23.9118C133.887 23.9772 135.307 24.0053 137.952 24.0053H142.016C141.932 23.6035 141.811 23.3138 141.68 23.0896C141.559 22.8747 141.278 22.5196 141.063 22.314C140.839 22.0991 140.428 21.8094 140.148 21.6693C139.867 21.5291 139.41 21.3609 139.148 21.3049C138.877 21.2488 138.288 21.2021 137.84 21.2114C137.382 21.2114 136.831 21.2675 136.597 21.3329C136.363 21.3983 135.952 21.5758 135.672 21.7253ZM174.487 15.6144C175.159 15.6144 176.084 15.6705 176.542 15.7452C177.009 15.82 177.738 15.9882 178.177 16.119C178.617 16.2591 179.327 16.5301 179.766 16.7357C180.205 16.9319 180.878 17.287 181.261 17.5112C181.644 17.7355 182.093 18.0438 182.56 18.4456L179.486 22.9774L178.953 22.613C178.654 22.4168 178.037 22.0617 177.57 21.8281C177.112 21.5945 176.439 21.3329 176.075 21.2488C175.673 21.146 175.047 21.09 174.44 21.09C173.72 21.09 173.291 21.146 172.833 21.2862C172.478 21.3983 172.085 21.5852 171.945 21.6973C171.796 21.8188 171.646 22.043 171.609 22.1925C171.543 22.4261 171.571 22.5009 171.814 22.7158C171.992 22.8747 172.412 23.0709 172.879 23.211C173.3 23.3418 174.216 23.5754 174.907 23.7343C175.599 23.8931 176.552 24.1267 177.009 24.2576C177.477 24.3884 178.121 24.5939 178.458 24.7248C178.794 24.8462 179.355 25.1079 179.71 25.2947C180.065 25.4816 180.635 25.8927 180.971 26.2011C181.298 26.5094 181.737 27.014 181.934 27.3224C182.139 27.6307 182.392 28.1727 182.504 28.5371C182.653 29.023 182.7 29.4434 182.7 30.1723C182.7 30.7142 182.644 31.387 182.578 31.6673C182.513 31.9476 182.289 32.5363 182.074 32.9754C181.766 33.6295 181.551 33.9192 180.85 34.62C180.093 35.3768 179.887 35.5263 178.925 36.0029C178.271 36.3206 177.486 36.6196 176.916 36.7597C176.402 36.8905 175.608 37.0401 175.141 37.0961C174.655 37.1615 173.786 37.1802 173.085 37.1428C172.422 37.1148 171.497 37.012 171.029 36.9092C170.571 36.8158 169.852 36.6196 169.441 36.4888C169.03 36.3486 168.189 35.9935 167.572 35.6852C166.881 35.3488 166.161 34.9003 165.703 34.5265C165.292 34.1995 164.769 33.7416 164.143 33.1156L165.75 31.0132C166.638 29.8546 167.423 28.8454 167.488 28.7707C167.591 28.6492 167.712 28.724 168.385 29.322C168.815 29.6957 169.413 30.1816 169.721 30.3872C170.03 30.5927 170.581 30.9011 170.936 31.0693C171.3 31.2281 171.926 31.443 172.337 31.5271C172.898 31.6486 173.347 31.6766 174.113 31.6486C174.842 31.6112 175.3 31.5458 175.683 31.3963C176 31.2842 176.29 31.0973 176.402 30.9385C176.514 30.7983 176.598 30.5554 176.598 30.4059C176.598 30.247 176.524 30.0508 176.43 29.9667C176.337 29.8733 176.056 29.7238 175.795 29.621C175.542 29.5182 174.673 29.2939 173.879 29.1071C173.085 28.9295 172.076 28.6772 171.637 28.5464C171.198 28.4156 170.525 28.182 170.142 28.0232C169.759 27.8643 169.189 27.5933 168.88 27.4251C168.572 27.2476 168.049 26.8925 167.712 26.6216C167.376 26.3599 166.927 25.9208 166.712 25.6591C166.488 25.3882 166.208 24.9397 166.068 24.6593C165.928 24.379 165.759 23.8464 165.685 23.4914C165.591 23.0615 165.563 22.585 165.601 22.0898C165.629 21.6786 165.722 21.1086 165.806 20.8283C165.89 20.548 166.096 20.0434 166.264 19.7071C166.432 19.3707 166.778 18.8474 167.03 18.5391C167.282 18.2307 167.778 17.7542 168.142 17.4832C168.497 17.2122 169.17 16.8011 169.628 16.5768C170.095 16.3432 170.805 16.0723 171.216 15.9695C171.627 15.8667 172.263 15.7452 172.618 15.6985C172.982 15.6518 173.823 15.6144 174.487 15.6144ZM69.0403 16.0629H75.0205V21.4077C75.0205 25.818 75.0485 26.8552 75.1606 27.2756C75.2354 27.556 75.4316 28.0605 75.5998 28.3969C75.796 28.7987 76.1137 29.2285 76.5529 29.6583C76.9266 30.0228 77.4686 30.4432 77.7769 30.6114C78.0853 30.7703 78.6085 30.9758 78.9449 31.0599C79.3934 31.1814 79.7859 31.2094 80.4399 31.1721C81.0847 31.144 81.5051 31.0599 81.9817 30.8824C82.3461 30.7422 82.9067 30.4339 83.2431 30.1816C83.5795 29.9293 84.028 29.4995 84.2429 29.2285C84.4578 28.9482 84.7382 28.4904 84.869 28.21C84.9998 27.9297 85.168 27.3971 85.2521 27.042C85.3642 26.5094 85.3922 25.4629 85.3922 16.0629H91.2789V21.5478C91.2789 26.1077 91.2602 27.1822 91.1387 27.883C91.0546 28.3409 90.8678 29.0884 90.7183 29.5369C90.5594 29.9947 90.2698 30.6862 90.0735 31.0786C89.868 31.4804 89.4849 32.1251 89.2139 32.5082C88.9429 32.8913 88.3823 33.5454 87.9711 33.9566C87.5507 34.3677 86.8592 34.947 86.4201 35.2367C85.9809 35.517 85.3642 35.8907 85.0465 36.0496C84.7195 36.2084 84.1495 36.442 83.7851 36.5729C83.4113 36.6943 82.7853 36.8625 82.4022 36.9466C82.0191 37.0307 81.2622 37.1241 80.7203 37.1522C80.1596 37.1802 79.3841 37.1615 78.8982 37.0961C78.4403 37.0307 77.7209 36.8999 77.3097 36.7878C76.8986 36.685 76.2071 36.442 75.768 36.2552C75.3288 36.0683 74.6093 35.6758 74.1608 35.3768C73.703 35.0872 72.9928 34.5172 72.5723 34.1154C72.1612 33.723 71.5632 33.0595 71.2549 32.6484C70.9559 32.2373 70.4793 31.4337 70.199 30.8731C69.928 30.3031 69.5916 29.4434 69.4702 28.9576C69.3393 28.4717 69.1898 27.7148 69.1338 27.2756C69.0777 26.8084 69.0403 24.3136 69.0403 21.2675V16.0629Z" fill="#959595"/>
</svg>
